<?xml version="1.0" encoding="utf-8"?>
<!-- Generator: Adobe Illustrator 26.5.0, SVG Export Plug-In . SVG Version: 6.00 Build 0)  -->
<svg version="1.1" id="Layer_1" xmlns="http://www.w3.org/2000/svg" xmlns:xlink="http://www.w3.org/1999/xlink" x="0px" y="0px"
	 viewBox="0 0 166.3 166.5" style="enable-background:new 0 0 166.3 166.5;" xml:space="preserve">
<style type="text/css">
	.st0{fill:#FFDFDA;}
	.st1{fill:#FF5D48;}
	.st2{fill:#004361;}
	.st3{fill:#FFFFFF;}
	.st4{fill:#004464;}
	.st5{fill:#FFFFFF;stroke:#004567;stroke-width:2.4078;stroke-miterlimit:10;}
	.st6{fill:#FF3328;}
</style>
<g>
	<path class="st0" d="M143.9,156.6H22.1c-7.1,0-12.8-5.7-12.8-12.8V22c0-7.1,5.7-12.8,12.8-12.8h121.8c7.1,0,12.8,5.7,12.8,12.8
		v121.8C156.7,150.9,151,156.6,143.9,156.6z"/>
	<path class="st1" d="M129.3,136.6H36.7c-4.1,0-7.4-3.3-7.4-7.4V36.6c0-4.1,3.3-7.4,7.4-7.4h92.6c4.1,0,7.4,3.3,7.4,7.4v92.6
		C136.7,133.3,133.4,136.6,129.3,136.6z"/>
	<g>
		<path class="st2" d="M55,56.8l-5.8,3.4v-1.4l5.8-3.5V56.8z M55,53.5l-5.7,3.4v-1.3l5.7-3.5V53.5z"/>
		<path class="st2" d="M59.9,89.2h-7.8V65.6c0.8,0.5,1.6,1,2.4,1.5c0.8,0.6,1.2,1.4,1.2,2.3v15.6h4.3V89.2z"/>
		<path class="st2" d="M70.6,89.2H55l2.5-4.2h7.1c0-2.1,0.1-3.4,0.4-3.9c0.2-0.3,1.2-1.2,3.1-2.6v6.5h2.5V89.2z M66,94.5
			c0,0.5-0.2,1-0.5,1.3c-0.3,0.3-0.8,0.5-1.3,0.5c-0.5,0-0.9-0.2-1.3-0.5c-0.3-0.3-0.5-0.8-0.5-1.3c0-0.5,0.2-0.9,0.5-1.3
			c0.3-0.3,0.8-0.5,1.3-0.5c0.5,0,1,0.2,1.3,0.5S66,94,66,94.5z"/>
		<path class="st2" d="M84.1,87.4c0,0.5-0.2,0.9-0.7,1.3c-0.4,0.3-0.9,0.5-1.5,0.5H65.6l2.5-4.2h11c-1.2-0.9-1.8-1.6-2.1-2.1
			c-0.2-0.5-0.4-1.1-0.6-1.6c-0.3-0.7-0.8-1-1.3-1c-0.8,0-1.4,0.4-1.8,1.1v-3.7c0.7-1.1,1.5-1.6,2.5-1.6c0.8,0,1.5,0.4,2.3,1.3
			c0.3,0.3,0.8,1.1,1.5,2.3c0.3,0.7,0.7,1.6,1.4,2.8c0.3,0.4,0.7,0.8,1.4,1.4c0.7,0.6,1.2,1,1.6,1.1V87.4z"/>
		<path class="st2" d="M99.3,89.2h-4.6v2c0,1.2-0.4,2.1-1.2,2.9c-0.8,0.8-1.8,1.2-2.9,1.2c-1.2,0-2.2-0.4-3.1-1.2
			c-0.9-0.8-1.4-1.8-1.5-2.9h4.6v-6c0-1.3,0.4-2.2,1.1-2.8c0.1-0.1,1.1-0.6,3-1.5v4.2h4.6V89.2z"/>
		<path class="st2" d="M117.2,89.2H94.3l2.5-4.2h9.4c0-2.3,0.9-4.2,2.7-5.7c0.6-0.6,1.8-0.9,3.3-1c1.6-0.1,2.8-0.4,3.4-0.8
			c0.6-0.4,1.1-0.9,1.7-1.6V89.2z M113.1,84.7v-3.3c-0.3-0.1-0.6-0.1-0.8-0.1c-0.7,0-1.4,0.3-1.9,0.9c-0.6,0.6-0.9,1.2-0.9,1.9
			c0,0.2,0,0.4,0.1,0.6H113.1z"/>
	</g>
	<g>
		<path class="st3" d="M125.9,127.7H43.5c-1.9,0-3.5-1.6-3.5-3.5V110c0-1.9,1.6-3.5,3.5-3.5h82.4c1.9,0,3.5,1.6,3.5,3.5v14.2
			C129.4,126.2,127.8,127.7,125.9,127.7z"/>
		<g>
			<g>
				<path class="st4" d="M47.2,114.7h-1v-1.2c-0.1,0-0.1,0-0.2,0c-0.1,0-0.3,0.1-0.4,0.2c-0.1,0.1-0.2,0.2-0.2,0.4c0,0,0,0,0,0
					c0,0,0,0,0,0v0.9c0,0.2-0.1,0.5-0.4,0.7c-0.3,0.2-0.5,0.3-0.8,0.3c-0.3,0-0.6-0.1-0.8-0.3c-0.2-0.2-0.4-0.4-0.4-0.7
					c0-0.3,0.1-0.6,0.4-0.8c0.1-0.1,0.1-0.1,0.2-0.1c0,0,0,0,0,0v0.8c0,0.1,0.1,0.3,0.2,0.3c0.1,0.1,0.2,0.1,0.4,0.1
					c0.2,0,0.3,0,0.4-0.1c0.1-0.1,0.2-0.2,0.2-0.5c0-1.3,0-1.5,0-0.5c0-0.2,0-0.4,0.1-0.5c0.1-0.2,0.2-0.4,0.4-0.5
					c0.1-0.1,0.2-0.1,0.4-0.2c0.2,0,0.3,0,0.5-0.1c0.2,0,0.4-0.1,0.5-0.3v1.5h0.4V114.7z"/>
				<path class="st4" d="M49.4,114.4c0,0.1,0,0.2-0.1,0.2s-0.2,0.1-0.2,0.1h-2.7l0.4-0.7h1.8c-0.2-0.1-0.3-0.3-0.3-0.4
					s-0.1-0.2-0.1-0.3c-0.1-0.1-0.1-0.2-0.2-0.2c-0.1,0-0.2,0.1-0.3,0.2v-0.6c0.1-0.2,0.3-0.3,0.4-0.3c0.2,0,0.4,0.1,0.5,0.4
					c0.1,0.2,0.2,0.4,0.3,0.7c0,0,0.1,0.1,0.2,0.2c0.1,0.1,0.2,0.2,0.3,0.2V114.4z M48.2,115.5c0,0.1,0,0.2-0.1,0.2
					c-0.1,0.1-0.1,0.1-0.2,0.1c-0.1,0-0.2,0-0.2-0.1c-0.1-0.1-0.1-0.1-0.1-0.2c0-0.1,0-0.2,0.1-0.2c0.1-0.1,0.1-0.1,0.2-0.1
					c0.1,0,0.2,0,0.2,0.1C48.1,115.4,48.2,115.5,48.2,115.5z"/>
				<path class="st4" d="M52,114.7h-0.8v0.3c0,0.2-0.1,0.4-0.2,0.5c-0.1,0.1-0.3,0.2-0.5,0.2c-0.2,0-0.4-0.1-0.5-0.2
					c-0.1-0.1-0.2-0.3-0.2-0.5h0.8v-1c0-0.2,0.1-0.4,0.2-0.5c0,0,0.2-0.1,0.5-0.3v0.7H52V114.7z"/>
				<path class="st4" d="M53.9,114.4c0,0.1,0,0.1-0.1,0.2c-0.1,0.1-0.1,0.1-0.2,0.1h-2.5l0.4-0.7h1.8c0-0.4,0-0.6,0.1-0.7
					c0-0.1,0.2-0.2,0.5-0.4V114.4z M52.8,115.5c0,0.1,0,0.2-0.1,0.2c-0.1,0.1-0.1,0.1-0.2,0.1c-0.1,0-0.2,0-0.2-0.1
					c-0.1-0.1-0.1-0.1-0.1-0.2s0-0.2,0.1-0.2c0.1-0.1,0.1-0.1,0.2-0.1c0.1,0,0.2,0,0.2,0.1C52.8,115.4,52.8,115.4,52.8,115.5z
					 M53.9,115.5c0,0.1,0,0.2-0.1,0.2c-0.1,0.1-0.1,0.1-0.2,0.1c-0.1,0-0.2,0-0.2-0.1c-0.1-0.1-0.1-0.1-0.1-0.2s0-0.2,0.1-0.2
					c0.1-0.1,0.1-0.1,0.2-0.1c0.1,0,0.2,0,0.2,0.1S53.9,115.4,53.9,115.5z"/>
				<path class="st4" d="M57,113.3l-0.7,0.7h0.3v0.5l-0.1,0.1h-0.4l-0.1-0.1V114l0.9-0.9L57,113.3z"/>
				<path class="st4" d="M63.5,114.7h-3.5c0,0.3-0.1,0.6-0.3,0.8s-0.5,0.4-0.8,0.4c-0.3,0-0.6-0.1-0.8-0.3c-0.2-0.2-0.4-0.4-0.4-0.7
					c0-0.4,0.1-0.6,0.4-0.7c0,0.2,0,0.3,0.1,0.5c0,0.2,0.1,0.3,0.2,0.4c0.1,0.1,0.2,0.2,0.4,0.2c0.2,0,0.3,0,0.4-0.1
					c0.1-0.1,0.2-0.2,0.2-0.4v-1.6l0.7-0.4v0.4c0.2-0.2,0.3-0.3,0.6-0.3h2.1c0.1,0,0.2,0.1,0.3,0.2c0.1,0.1,0.1,0.2,0.1,0.3v0.7h0.4
					V114.7z M62.5,114v-0.3c0-0.1-0.1-0.2-0.3-0.2h-2.1v0.5H62.5z M62,111.3c0,0.1,0,0.2-0.1,0.2c-0.1,0.1-0.1,0.1-0.2,0.1
					c-0.1,0-0.2,0-0.2-0.1c-0.1-0.1-0.1-0.1-0.1-0.2s0-0.2,0.1-0.2c0.1-0.1,0.1-0.1,0.2-0.1c0.1,0,0.2,0,0.2,0.1
					C62,111.1,62,111.2,62,111.3z"/>
				<path class="st4" d="M65.5,114.4c0,0.1,0,0.1-0.1,0.2c-0.1,0.1-0.1,0.1-0.2,0.1h-2.5l0.4-0.7h1.8c0-0.4,0-0.6,0.1-0.7
					c0-0.1,0.2-0.2,0.5-0.4V114.4z M64.4,115.5c0,0.1,0,0.2-0.1,0.2c-0.1,0.1-0.1,0.1-0.2,0.1c-0.1,0-0.2,0-0.2-0.1
					c-0.1-0.1-0.1-0.1-0.1-0.2s0-0.2,0.1-0.2c0.1-0.1,0.1-0.1,0.2-0.1c0.1,0,0.2,0,0.2,0.1C64.3,115.4,64.4,115.4,64.4,115.5z
					 M65.4,115.5c0,0.1,0,0.2-0.1,0.2c-0.1,0.1-0.1,0.1-0.2,0.1c-0.1,0-0.2,0-0.2-0.1c-0.1-0.1-0.1-0.1-0.1-0.2s0-0.2,0.1-0.2
					c0.1-0.1,0.1-0.1,0.2-0.1c0.1,0,0.2,0,0.2,0.1S65.4,115.4,65.4,115.5z"/>
				<path class="st4" d="M68,114.7h-0.8v0.3c0,0.2-0.1,0.4-0.2,0.5c-0.1,0.1-0.3,0.2-0.5,0.2c-0.2,0-0.4-0.1-0.5-0.2
					c-0.1-0.1-0.2-0.3-0.2-0.5h0.8v-1c0-0.2,0.1-0.4,0.2-0.5c0,0,0.2-0.1,0.5-0.3v0.7H68V114.7z"/>
				<path class="st4" d="M71.4,114.7c0,0.2-0.1,0.4-0.2,0.6c-0.2,0.2-0.4,0.3-0.6,0.3c-0.2,0-0.5-0.1-0.6-0.3
					c-0.2-0.2-0.2-0.4-0.2-0.6h-2.5l0.4-0.7h0.9c0-0.4,0.2-0.7,0.4-1c0.1-0.1,0.2-0.1,0.4-0.2c0.1,0,0.3,0,0.4,0
					c0.2,0,0.4-0.1,0.5-0.3l0,2.1c0,0.1,0,0.2,0.1,0.2c0.1,0.1,0.1,0.1,0.2,0.1c0.1,0,0.1,0,0.2-0.1c0.1-0.1,0.1-0.1,0.1-0.2v-3.3
					c0-0.2,0.1-0.3,0.2-0.4l0.4-0.3V114.7z M69.7,114v-0.5c-0.1,0-0.1,0-0.2,0c-0.1,0-0.3,0.1-0.4,0.2c-0.1,0.1-0.1,0.2-0.1,0.3
					l0,0.1H69.7z"/>
				<path class="st4" d="M72.9,114.7h-0.6v-3.3c0-0.2,0.1-0.3,0.2-0.4c0.1-0.1,0.3-0.2,0.4-0.3V114.7z"/>
				<path class="st4" d="M77.8,114.7h-0.7c0,0.3-0.1,0.6-0.4,0.8s-0.5,0.4-0.8,0.4c-0.3,0-0.6-0.1-0.8-0.3c-0.2-0.2-0.4-0.4-0.4-0.7
					c0-0.4,0.1-0.6,0.4-0.7c0,0.2,0.1,0.4,0.1,0.5c0,0.2,0.1,0.3,0.2,0.4c0.1,0.1,0.3,0.2,0.5,0.2c0.2,0,0.3,0,0.4-0.1
					c0.1-0.1,0.2-0.2,0.2-0.4v-3.3c0-0.1,0-0.2,0.1-0.2c0.1-0.1,0.1-0.1,0.2-0.2l0.4-0.3v3.3h0.7V114.7z"/>
				<path class="st4" d="M80.2,114.7H77l0.4-0.7h1.8c0-0.4,0-0.6,0.1-0.7c0-0.1,0.2-0.2,0.5-0.4v1.1h0.4V114.7z M78.7,115.8
					c0,0.1,0,0.2-0.1,0.2c-0.1,0.1-0.1,0.1-0.2,0.1c-0.1,0-0.2,0-0.2-0.1c-0.1-0.1-0.1-0.1-0.1-0.2c0-0.1,0-0.2,0.1-0.2
					c0.1-0.1,0.1-0.1,0.2-0.1c0.1,0,0.2,0,0.2,0.1C78.7,115.6,78.7,115.7,78.7,115.8z M79.7,115.8c0,0.1,0,0.2-0.1,0.2
					c-0.1,0.1-0.1,0.1-0.2,0.1c-0.1,0-0.2,0-0.2-0.1c-0.1-0.1-0.1-0.1-0.1-0.2c0-0.1,0-0.2,0.1-0.2c0.1-0.1,0.1-0.1,0.2-0.1
					c0.1,0,0.2,0,0.2,0.1C79.7,115.6,79.7,115.7,79.7,115.8z"/>
				<path class="st4" d="M83.2,114.7h-0.7v0.4l-0.2-0.4h-2.8l0.4-0.7h2l-0.3-0.5c-0.1-0.2-0.2-0.3-0.4-0.3c-0.1,0-0.2,0-0.3,0.1
					v-0.6c0.1-0.2,0.2-0.2,0.4-0.2c0.1,0,0.3,0.1,0.4,0.2c0,0,0.1,0.2,0.3,0.4l0.6,0.9h0.8V114.7z M81.8,115.5c0,0.1,0,0.2-0.1,0.2
					c-0.1,0.1-0.1,0.1-0.2,0.1c-0.1,0-0.2,0-0.2-0.1c-0.1-0.1-0.1-0.1-0.1-0.2c0-0.1,0-0.2,0.1-0.2c0.1-0.1,0.1-0.1,0.2-0.1
					c0.1,0,0.2,0,0.2,0.1C81.8,115.4,81.8,115.5,81.8,115.5z"/>
				<path class="st4" d="M86.4,114.7h-4.1l0.4-0.7h0.6c0-0.2,0-0.4,0.1-0.4c0.2-0.1,0.3-0.2,0.5-0.3v0.7h0.4c0-0.1,0-0.2,0-0.2
					c0-0.1,0-0.2,0-0.2c0-0.1,0-0.2,0.1-0.3c0,0,0.2-0.1,0.5-0.3v1h0.4v-0.7c0-0.1,0-0.2,0.1-0.3l0.4-0.2v1.2h0.4V114.7z"/>
				<path class="st4" d="M88.4,114.4c0,0.1,0,0.1-0.1,0.2c-0.1,0.1-0.1,0.1-0.2,0.1h-2.5L86,114h1.8c0-0.4,0-0.6,0.1-0.7
					c0-0.1,0.2-0.2,0.5-0.4V114.4z M87.3,111.7c0,0.1,0,0.2-0.1,0.2c-0.1,0.1-0.1,0.1-0.2,0.1c-0.1,0-0.2,0-0.2-0.1
					c-0.1-0.1-0.1-0.1-0.1-0.2s0-0.2,0.1-0.2c0.1-0.1,0.1-0.1,0.2-0.1c0.1,0,0.2,0,0.2,0.1C87.3,111.5,87.3,111.6,87.3,111.7z
					 M88.3,111.7c0,0.1,0,0.2-0.1,0.2S88.1,112,88,112c-0.1,0-0.2,0-0.2-0.1c-0.1-0.1-0.1-0.1-0.1-0.2s0-0.2,0.1-0.2
					c0.1-0.1,0.1-0.1,0.2-0.1c0.1,0,0.2,0,0.2,0.1C88.3,111.5,88.3,111.6,88.3,111.7z"/>
				<path class="st4" d="M93.3,114.7h-0.8c0,0.3-0.1,0.6-0.4,0.8s-0.5,0.4-0.8,0.4c-0.3,0-0.6-0.1-0.8-0.3c-0.2-0.2-0.4-0.4-0.4-0.7
					c0-0.4,0.1-0.6,0.4-0.7c0,0.2,0,0.3,0.1,0.5c0,0.2,0.1,0.3,0.2,0.4c0.1,0.1,0.2,0.2,0.4,0.2c0.2,0,0.3-0.1,0.4-0.2
					c0.1-0.1,0.2-0.3,0.2-0.5c0-0.1,0-0.2,0-0.3c0-0.1,0-0.2,0-0.3c0-0.1,0-0.2,0.1-0.3c0-0.1,0.1-0.2,0.2-0.2l0.5-0.2v0.7h0.8
					V114.7z M91.6,112.8c0,0.1,0,0.2-0.1,0.2s-0.1,0.1-0.2,0.1c-0.1,0-0.2,0-0.2-0.1s-0.1-0.1-0.1-0.2c0-0.1,0-0.2,0.1-0.2
					c0.1-0.1,0.1-0.1,0.2-0.1c0.1,0,0.2,0,0.2,0.1C91.6,112.7,91.6,112.8,91.6,112.8z"/>
				<path class="st4" d="M96.3,114.7h-3.8l0.4-0.7h1.6c0-0.4,0.2-0.7,0.4-1c0.1-0.1,0.3-0.1,0.6-0.2c0.3,0,0.5-0.1,0.6-0.1
					c0.1-0.1,0.2-0.2,0.3-0.3V114.7z M95.6,113.9v-0.6c-0.1,0-0.1,0-0.1,0c-0.1,0-0.2,0-0.3,0.1c-0.1,0.1-0.1,0.2-0.1,0.3
					c0,0,0,0.1,0,0.1H95.6z"/>
				<path class="st4" d="M101.7,114.7h-0.8c0,0.3-0.1,0.6-0.4,0.8s-0.5,0.4-0.8,0.4c-0.3,0-0.6-0.1-0.8-0.3
					c-0.2-0.2-0.4-0.4-0.4-0.7c0-0.4,0.1-0.6,0.4-0.7c0,0.2,0,0.3,0.1,0.5c0,0.2,0.1,0.3,0.2,0.4c0.1,0.1,0.2,0.2,0.4,0.2
					c0.2,0,0.3-0.1,0.4-0.2c0.1-0.1,0.2-0.3,0.2-0.5c0-0.1,0-0.2,0-0.3c0-0.1,0-0.2,0-0.3c0-0.1,0-0.2,0.1-0.3
					c0-0.1,0.1-0.2,0.2-0.2l0.5-0.2v0.7h0.8V114.7z M99.9,112.8c0,0.1,0,0.2-0.1,0.2s-0.1,0.1-0.2,0.1c-0.1,0-0.2,0-0.2-0.1
					s-0.1-0.1-0.1-0.2c0-0.1,0-0.2,0.1-0.2c0.1-0.1,0.1-0.1,0.2-0.1c0.1,0,0.2,0,0.2,0.1C99.9,112.7,99.9,112.8,99.9,112.8z"/>
				<path class="st4" d="M105.8,114.7h-5l0.4-0.7h3.6v-0.3c0-0.1,0-0.1-0.1-0.2c-0.1,0-0.1-0.1-0.2-0.1H102c0-0.1,0-0.1,0-0.2
					c0-0.2,0-0.3,0.1-0.3l2.9-1.4l-0.1,0.2l-1.3,0.8c-0.1,0-0.1,0.1-0.2,0.1c-0.1,0-0.1,0.1-0.1,0.1c0,0,0,0.1,0.1,0.1
					c0,0,0.1,0.1,0.1,0.1h1.3c0.1,0,0.3,0.1,0.4,0.2c0.1,0.1,0.1,0.1,0.2,0.2c0,0,0,0.1,0,0.2v0.6h0.4V114.7z"/>
				<path class="st4" d="M108.8,114.7H108c-0.1,0.2-0.2,0.3-0.3,0.4c-0.1,0.1-0.3,0.1-0.5,0.1c-0.4,0-0.7-0.2-0.8-0.5H105l0.4-0.7h1
					c0.2-0.2,0.4-0.4,0.5-0.5c0.1,0,0.2-0.2,0.3-0.4c0.1,0.1,0.1,0.2,0.1,0.2c0,0.1,0.1,0.1,0.2,0.2c0.2,0.1,0.4,0.3,0.5,0.5h0.8
					V114.7z M107.5,114.3c0-0.1,0-0.2-0.1-0.2c-0.1-0.1-0.1-0.1-0.2-0.1c-0.1,0-0.2,0-0.2,0.1c-0.1,0.1-0.1,0.1-0.1,0.2
					c0,0.1,0,0.2,0.1,0.2c0.1,0.1,0.1,0.1,0.2,0.1c0.1,0,0.2,0,0.2-0.1C107.4,114.5,107.5,114.4,107.5,114.3z"/>
				<path class="st4" d="M111.1,114.7h-3.2l0.4-0.7h1.8c0-0.4,0-0.6,0.1-0.7c0-0.1,0.2-0.2,0.5-0.4v1.1h0.4V114.7z M109.6,112
					c0,0.1,0,0.2-0.1,0.2c-0.1,0.1-0.1,0.1-0.2,0.1c-0.1,0-0.2,0-0.2-0.1c-0.1-0.1-0.1-0.1-0.1-0.2c0-0.1,0-0.2,0.1-0.2
					s0.1-0.1,0.2-0.1c0.1,0,0.2,0,0.2,0.1S109.6,111.9,109.6,112z M110.6,112c0,0.1,0,0.2-0.1,0.2c-0.1,0.1-0.1,0.1-0.2,0.1
					c-0.1,0-0.2,0-0.2-0.1c-0.1-0.1-0.1-0.1-0.1-0.2c0-0.1,0-0.2,0.1-0.2s0.1-0.1,0.2-0.1c0.1,0,0.2,0,0.2,0.1
					C110.6,111.8,110.6,111.9,110.6,112z"/>
				<path class="st4" d="M112.8,114.5c0,0.1,0,0.1-0.1,0.1c0,0-0.1,0.1-0.2,0.1h-2.3l0.4-0.7h1.5c0-0.2,0-0.3,0-0.3
					c0-0.1,0.1-0.2,0.2-0.2l0.4-0.3V114.5z M112.7,112c0,0.1,0,0.2-0.1,0.2c-0.1,0.1-0.1,0.1-0.2,0.1c-0.1,0-0.2,0-0.2-0.1
					c-0.1-0.1-0.1-0.1-0.1-0.2s0-0.2,0.1-0.2c0.1-0.1,0.1-0.1,0.2-0.1c0.1,0,0.2,0,0.2,0.1C112.7,111.9,112.7,112,112.7,112z"/>
				<path class="st4" d="M118.5,114.7h-1v-1.2c-0.1,0-0.1,0-0.2,0c-0.1,0-0.3,0.1-0.4,0.2c-0.1,0.1-0.2,0.2-0.2,0.4c0,0,0,0,0,0
					c0,0,0,0,0,0v0.9c0,0.2-0.1,0.5-0.4,0.7c-0.3,0.2-0.5,0.3-0.8,0.3c-0.3,0-0.6-0.1-0.8-0.3c-0.2-0.2-0.4-0.4-0.4-0.7
					c0-0.3,0.1-0.6,0.4-0.8c0.1-0.1,0.1-0.1,0.2-0.1c0,0,0,0,0,0v0.8c0,0.1,0.1,0.3,0.2,0.3c0.1,0.1,0.2,0.1,0.4,0.1
					c0.2,0,0.3,0,0.4-0.1c0.1-0.1,0.2-0.2,0.2-0.5c0-1.3,0-1.5,0-0.5c0-0.2,0-0.4,0.1-0.5c0.1-0.2,0.2-0.4,0.4-0.5
					c0.1-0.1,0.2-0.1,0.4-0.2c0.2,0,0.3,0,0.5-0.1c0.2,0,0.4-0.1,0.5-0.3v1.5h0.4V114.7z M115.6,116.3c0,0.2-0.1,0.3-0.3,0.3
					c-0.2,0-0.3-0.1-0.3-0.3s0.1-0.3,0.3-0.3C115.5,116.1,115.6,116.2,115.6,116.3z M116.7,116.3c0,0.2-0.1,0.3-0.3,0.3
					c-0.2,0-0.3-0.1-0.3-0.3s0.1-0.3,0.3-0.3C116.6,116.1,116.7,116.2,116.7,116.3z"/>
				<path class="st4" d="M122.7,114.7h-5l0.4-0.7h3.6v-0.3c0-0.1,0-0.1-0.1-0.2c-0.1,0-0.1-0.1-0.2-0.1h-2.5c0-0.1,0-0.1,0-0.2
					c0-0.2,0-0.3,0.1-0.3l2.9-1.4l-0.1,0.2l-1.3,0.8c-0.1,0-0.1,0.1-0.2,0.1c-0.1,0-0.1,0.1-0.1,0.1c0,0,0,0.1,0.1,0.1
					c0,0,0.1,0.1,0.1,0.1h1.3c0.1,0,0.3,0.1,0.4,0.2c0.1,0.1,0.1,0.1,0.2,0.2c0,0,0,0.1,0,0.2v0.6h0.4V114.7z"/>
				<path class="st4" d="M123.8,114.4c0,0.1,0,0.2-0.1,0.2c-0.1,0.1-0.1,0.1-0.2,0.1h-1.6l0.4-0.7h0.9v-2.6c0-0.2,0.1-0.3,0.2-0.4
					c0.1-0.1,0.3-0.2,0.4-0.3V114.4z"/>
				<path class="st4" d="M65.6,121.9c0,0.1,0,0.2-0.1,0.3c-0.1,0.1-0.1,0.2-0.2,0.2h-1.6v-0.7c0-0.4,0.2-0.7,0.5-1
					c0.1-0.1,0.2-0.1,0.4-0.2c0.2,0,0.3,0,0.5-0.1c0.2,0,0.4-0.1,0.5-0.3V121.9z M65,121.7v-0.6c-0.1,0-0.1,0-0.2,0
					c-0.1,0-0.3,0.1-0.4,0.2s-0.2,0.2-0.2,0.4c0,0,0,0,0,0.1H65z"/>
				<path class="st4" d="M67.8,122.4h-1.3v-3.9c0.1,0.1,0.3,0.2,0.4,0.3c0.1,0.1,0.2,0.2,0.2,0.4v2.6h0.7V122.4z"/>
				<path class="st4" d="M69.4,122.2c0,0.1,0,0.1-0.1,0.1c0,0-0.1,0.1-0.2,0.1h-2.3l0.4-0.7h1.5c0-0.2,0-0.3,0-0.3
					c0-0.1,0.1-0.2,0.2-0.2l0.4-0.3V122.2z M69.4,119.7c0,0.1,0,0.2-0.1,0.2c-0.1,0.1-0.1,0.1-0.2,0.1c-0.1,0-0.2,0-0.2-0.1
					c-0.1-0.1-0.1-0.1-0.1-0.2s0-0.2,0.1-0.2c0.1-0.1,0.1-0.1,0.2-0.1c0.1,0,0.2,0,0.2,0.1C69.3,119.6,69.4,119.7,69.4,119.7z"/>
				<path class="st4" d="M72.4,122.1c0,0.1,0,0.2-0.1,0.2c-0.1,0.1-0.1,0.1-0.2,0.1H70v-0.7h1.8v-0.4c0-0.1,0-0.1-0.1-0.1
					c-0.1,0-0.1-0.1-0.2-0.1h-1.2v-0.9c0,0.1,0.1,0.1,0.2,0.2c0.1,0.1,0.2,0.1,0.3,0.1h1c0.2,0,0.3,0.1,0.4,0.2
					c0.1,0.1,0.2,0.2,0.2,0.4V122.1z"/>
				<path class="st4" d="M73.9,119.2H73v-0.2h0.2c-0.1,0-0.1-0.1-0.1-0.2c0-0.2,0.1-0.3,0.3-0.3h0.5v0.2h-0.4c0,0-0.1,0-0.1,0.1
					c0,0.1,0.1,0.2,0.2,0.2h0.3V119.2z M73.9,122.4h-0.6v-2.9h0.6V122.4z"/>
				<path class="st4" d="M78.4,122.4h-2.3v-0.7c0-0.4,0.2-0.7,0.5-1c0.1-0.1,0.2-0.1,0.4-0.2c0.2,0,0.3,0,0.5-0.1
					c0.2,0,0.4-0.1,0.5-0.3v1.5h0.4V122.4z M77.4,121.7v-0.6c-0.1,0-0.1,0-0.2,0c-0.1,0-0.3,0.1-0.4,0.2s-0.2,0.2-0.2,0.4
					c0,0,0,0,0,0.1H77.4z"/>
				<path class="st4" d="M80.4,122.1c0,0.1,0,0.1-0.1,0.2c-0.1,0.1-0.1,0.1-0.2,0.1h-2.5l0.4-0.7h1.8c0-0.4,0-0.6,0.1-0.7
					c0-0.1,0.2-0.2,0.5-0.4V122.1z M79.3,119.4c0,0.1,0,0.2-0.1,0.2c-0.1,0.1-0.1,0.1-0.2,0.1c-0.1,0-0.2,0-0.2-0.1
					c-0.1-0.1-0.1-0.1-0.1-0.2s0-0.2,0.1-0.2c0.1-0.1,0.1-0.1,0.2-0.1c0.1,0,0.2,0,0.2,0.1C79.3,119.2,79.3,119.3,79.3,119.4z
					 M80.3,119.4c0,0.1,0,0.2-0.1,0.2s-0.1,0.1-0.2,0.1c-0.1,0-0.2,0-0.2-0.1c-0.1-0.1-0.1-0.1-0.1-0.2s0-0.2,0.1-0.2
					c0.1-0.1,0.1-0.1,0.2-0.1c0.1,0,0.2,0,0.2,0.1C80.3,119.2,80.3,119.3,80.3,119.4z"/>
				<path class="st4" d="M82.6,122.4h-1.3v-3.9c0.1,0.1,0.3,0.2,0.4,0.3c0.1,0.1,0.2,0.2,0.2,0.4v2.6h0.7V122.4z"/>
				<path class="st4" d="M84.2,122.2c0,0.1,0,0.1-0.1,0.1c0,0-0.1,0.1-0.2,0.1h-2.3l0.4-0.7h1.5c0-0.2,0-0.3,0-0.3
					c0-0.1,0.1-0.2,0.2-0.2l0.4-0.3V122.2z M84.2,119.7c0,0.1,0,0.2-0.1,0.2C84,120,84,120,83.9,120c-0.1,0-0.2,0-0.2-0.1
					c-0.1-0.1-0.1-0.1-0.1-0.2s0-0.2,0.1-0.2c0.1-0.1,0.1-0.1,0.2-0.1c0.1,0,0.2,0,0.2,0.1C84.1,119.6,84.2,119.7,84.2,119.7z"/>
				<path class="st4" d="M86.4,122.4h-1.3v-3.9c0.1,0.1,0.3,0.2,0.4,0.3c0.1,0.1,0.2,0.2,0.2,0.4v2.6h0.7V122.4z"/>
				<path class="st4" d="M88.8,122.4h-3.2l0.4-0.7h1.8c0-0.4,0-0.6,0.1-0.7c0-0.1,0.2-0.2,0.5-0.4v1.1h0.4V122.4z M87.3,123.5
					c0,0.1,0,0.2-0.1,0.2c-0.1,0.1-0.1,0.1-0.2,0.1c-0.1,0-0.2,0-0.2-0.1c-0.1-0.1-0.1-0.1-0.1-0.2c0-0.1,0-0.2,0.1-0.2
					c0.1-0.1,0.1-0.1,0.2-0.1c0.1,0,0.2,0,0.2,0.1C87.3,123.3,87.3,123.4,87.3,123.5z M88.3,123.5c0,0.1,0,0.2-0.1,0.2
					c-0.1,0.1-0.1,0.1-0.2,0.1c-0.1,0-0.2,0-0.2-0.1c-0.1-0.1-0.1-0.1-0.1-0.2c0-0.1,0-0.2,0.1-0.2c0.1-0.1,0.1-0.1,0.2-0.1
					c0.1,0,0.2,0,0.2,0.1C88.3,123.3,88.3,123.4,88.3,123.5z"/>
				<path class="st4" d="M90.2,122.1c0,0.1,0,0.1-0.1,0.2s-0.1,0.1-0.2,0.1H88l0.4-0.7h1.2c0-0.4,0-0.6,0.1-0.7c0,0,0.2-0.2,0.5-0.4
					V122.1z M89.8,123.2c0,0.1,0,0.2-0.1,0.2c-0.1,0.1-0.1,0.1-0.2,0.1c-0.1,0-0.2,0-0.2-0.1c-0.1-0.1-0.1-0.1-0.1-0.2
					c0-0.1,0-0.2,0.1-0.2c0.1-0.1,0.1-0.1,0.2-0.1c0.1,0,0.2,0,0.2,0.1C89.8,123.1,89.8,123.2,89.8,123.2z"/>
				<path class="st4" d="M94.3,122.4c0,0.3-0.1,0.6-0.4,0.8s-0.5,0.4-0.8,0.4c-0.3,0-0.6-0.1-0.8-0.3c-0.2-0.2-0.4-0.4-0.4-0.7
					c0-0.4,0.1-0.6,0.4-0.7c0,0.2,0.1,0.4,0.1,0.5c0,0.2,0.1,0.3,0.2,0.4c0.1,0.1,0.3,0.2,0.5,0.2c0.2,0,0.3,0,0.4-0.1
					c0.1-0.1,0.2-0.2,0.2-0.4v-3.3c0-0.1,0-0.2,0.1-0.2c0,0,0.1-0.1,0.2-0.2l0.4-0.3V122.4z"/>
				<path class="st4" d="M96.5,122.4h-1.3v-3.9c0.1,0.1,0.3,0.2,0.4,0.3c0.1,0.1,0.2,0.2,0.2,0.4v2.6h0.7V122.4z"/>
				<path class="st4" d="M98.7,122.1c0,0.1,0,0.2-0.1,0.2s-0.2,0.1-0.2,0.1h-2.7l0.4-0.7h1.8c-0.2-0.1-0.3-0.3-0.3-0.4
					s-0.1-0.2-0.1-0.3c-0.1-0.1-0.1-0.2-0.2-0.2c-0.1,0-0.2,0.1-0.3,0.2v-0.6c0.1-0.2,0.3-0.3,0.4-0.3c0.2,0,0.4,0.1,0.5,0.4
					c0.1,0.2,0.2,0.4,0.3,0.7c0,0,0.1,0.1,0.2,0.2c0.1,0.1,0.2,0.2,0.3,0.2V122.1z M97.4,119.2c0,0.1,0,0.2-0.1,0.2
					c-0.1,0.1-0.1,0.1-0.2,0.1c-0.1,0-0.2,0-0.2-0.1c-0.1-0.1-0.1-0.1-0.1-0.2c0-0.1,0-0.2,0.1-0.2c0.1-0.1,0.1-0.1,0.2-0.1
					c0.1,0,0.2,0,0.2,0.1C97.4,119.1,97.4,119.1,97.4,119.2z"/>
				<path class="st4" d="M101.7,122.1c0,0.1,0,0.2-0.1,0.2c-0.1,0.1-0.1,0.1-0.2,0.1h-2.1v-0.7h1.8v-0.4c0-0.1,0-0.1-0.1-0.1
					c-0.1,0-0.1-0.1-0.2-0.1h-1.2v-0.9c0,0.1,0.1,0.1,0.2,0.2c0.1,0.1,0.2,0.1,0.3,0.1h1c0.2,0,0.3,0.1,0.4,0.2
					c0.1,0.1,0.2,0.2,0.2,0.4V122.1z"/>
				<path class="st4" d="M103.2,123.5h-0.9v-0.2h0.2c-0.1,0-0.1-0.1-0.1-0.2c0-0.2,0.1-0.3,0.3-0.3h0.5v0.2h-0.4c0,0-0.1,0-0.1,0.1
					c0,0.1,0.1,0.2,0.2,0.2h0.3V123.5z M103.5,122.4h-0.6v-3.3c0-0.2,0.1-0.3,0.2-0.4c0.1-0.1,0.3-0.2,0.4-0.3V122.4z"/>
			</g>
		</g>
	</g>
	<g>
		<g>
			<circle class="st5" cx="87.6" cy="34.3" r="15.7"/>
		</g>
		<g>
			<path class="st6" d="M95.9,32.9c0,1.6-0.9,3.1-2.5,4.2c-0.7,0.5,0.1,4.4-0.8,4.7c-0.7,0.3-3.1-3.1-3.9-3
				c-0.6,0.1-1.2,0.1-1.8,0.1c-5,0-9-2.7-9-6.1s4-6.1,9-6.1S95.9,29.5,95.9,32.9z"/>
			<g>
				<circle class="st3" cx="82.8" cy="32.7" r="1.1"/>
				<circle class="st3" cx="86.7" cy="32.7" r="1.1"/>
				<circle class="st3" cx="90.5" cy="32.7" r="1.1"/>
			</g>
		</g>
	</g>
</g>
</svg>
