<?xml version="1.0" encoding="UTF-8"?>
<svg id="Layer_1" data-name="Layer 1" xmlns="http://www.w3.org/2000/svg" xmlns:xlink="http://www.w3.org/1999/xlink" version="1.1" viewBox="0 0 166.28 166.53">
  <defs>
    <style>
      .cls-1 {
        fill: #24415c;
      }

      .cls-1, .cls-2, .cls-3, .cls-4, .cls-5, .cls-6, .cls-7 {
        stroke-width: 0px;
      }

      .cls-2 {
        fill: #1a4361;
      }

      .cls-8 {
        clip-path: url(#clippath);
      }

      .cls-3, .cls-9, .cls-10, .cls-11 {
        fill: none;
      }

      .cls-4 {
        fill: #36b0ff;
      }

      .cls-5 {
        fill: #19425e;
      }

      .cls-6 {
        fill: #afdfff;
      }

      .cls-9 {
        stroke: #da7059;
        stroke-linecap: round;
        stroke-width: 2.57px;
      }

      .cls-9, .cls-12, .cls-10, .cls-11 {
        stroke-miterlimit: 10;
      }

      .cls-12 {
        stroke: #004464;
        stroke-width: 2.71px;
      }

      .cls-12, .cls-7 {
        fill: #fff;
      }

      .cls-10 {
        stroke-width: .24px;
      }

      .cls-10, .cls-11 {
        stroke: #afdfff;
      }

      .cls-11 {
        stroke-width: .25px;
      }
    </style>
    <clipPath id="clippath">
      <polygon class="cls-3" points="130.12 138.08 35.35 138.08 36.26 107.18 131.03 107.18 130.12 138.08"/>
    </clipPath>
  </defs>
  <rect class="cls-6" x="10.08" y="10.66" width="147.42" height="147.42" rx="12.83" ry="12.83"/>
  <rect class="cls-4" x="30.07" y="30.66" width="107.42" height="107.42" rx="7.4" ry="7.4"/>
  <g>
    <path class="cls-5" d="M41.03,63.11h.86v4.13h-.86v-4.13ZM41.46,65.26h1.01c.25,0,.44-.06.58-.19.14-.13.21-.31.21-.54h0c0-.24-.07-.42-.21-.55-.14-.12-.33-.19-.58-.19h-1.01v-.69h1.22c.29,0,.54.06.76.18.22.12.39.28.51.49s.18.46.18.74h0c0,.29-.06.54-.18.75-.12.21-.29.38-.51.49-.22.12-.47.18-.76.18h-1.22v-.68Z"/>
    <path class="cls-5" d="M44.59,63.11h.83v4.13h-.83v-4.13Z"/>
    <path class="cls-5" d="M46.58,67.11c-.23-.13-.4-.31-.52-.55s-.18-.52-.18-.85h0c0-.33.06-.61.18-.85s.29-.42.51-.55c.22-.13.48-.2.78-.2s.56.06.78.19.39.31.51.54c.12.23.18.5.18.81v.26h-2.53v-.53h2.13l-.4.5v-.32c0-.18-.03-.33-.08-.45-.05-.12-.13-.21-.23-.27-.1-.06-.21-.09-.34-.09s-.24.03-.34.09c-.1.06-.18.16-.23.28s-.08.27-.08.45v.33c0,.17.03.31.08.43s.14.21.24.28c.1.06.23.1.37.1.12,0,.21-.02.3-.05s.15-.08.21-.14c.05-.05.09-.11.11-.17v-.02h.77v.03c-.03.11-.08.23-.14.34-.07.11-.16.22-.27.31-.11.1-.25.17-.42.23-.16.06-.35.08-.57.08-.31,0-.58-.06-.81-.19Z"/>
    <path class="cls-5" d="M49.62,67.17c-.16-.08-.28-.19-.36-.33-.09-.14-.13-.3-.13-.48h0c0-.28.1-.5.31-.66s.5-.25.88-.28l1.2-.08v.52l-1.07.07c-.16,0-.28.05-.37.11-.08.07-.13.15-.13.26h0c0,.12.04.21.13.27.09.06.2.1.35.1.12,0,.24-.02.33-.07.1-.05.18-.12.23-.2.06-.08.08-.18.08-.29v-.93c0-.13-.04-.24-.13-.32s-.21-.12-.38-.12-.28.03-.37.1c-.09.06-.15.15-.17.25v.03h-.77v-.03c.02-.19.08-.36.19-.5.11-.15.26-.26.46-.34s.43-.12.7-.12.49.04.69.13c.19.08.35.21.45.36s.16.33.16.54v2.1h-.83v-.46h-.02c-.06.1-.13.19-.22.27-.09.08-.19.13-.31.17s-.24.06-.37.06c-.2,0-.38-.04-.54-.12Z"/>
    <path class="cls-5" d="M52.99,67.18c-.2-.08-.35-.2-.46-.34-.11-.15-.18-.31-.2-.51v-.03s.81,0,.81,0v.03c.03.12.09.21.19.28.09.07.22.1.39.1.11,0,.2-.01.27-.04.08-.03.13-.06.17-.11s.06-.11.06-.17h0c0-.08-.03-.15-.09-.2-.06-.05-.16-.09-.31-.12l-.52-.11c-.3-.06-.52-.17-.67-.32-.15-.15-.23-.34-.23-.57h0c0-.2.05-.37.16-.51.11-.14.26-.25.45-.33.19-.08.42-.12.68-.12s.5.04.69.13c.19.09.34.2.44.35.1.15.16.31.16.49v.03h-.77v-.02c-.02-.11-.07-.2-.16-.27s-.21-.11-.36-.11c-.1,0-.18.01-.25.04-.07.03-.12.06-.16.11-.04.05-.06.1-.06.17h0c0,.08.03.15.09.2.06.05.17.1.32.13l.52.11c.32.07.55.17.69.3.14.13.21.31.21.54h0c0,.2-.06.38-.17.53s-.27.26-.47.35-.43.12-.7.12c-.28,0-.52-.04-.72-.12Z"/>
    <path class="cls-5" d="M56.06,67.11c-.23-.13-.4-.31-.52-.55s-.18-.52-.18-.85h0c0-.33.06-.61.18-.85s.29-.42.51-.55c.22-.13.48-.2.78-.2s.56.06.78.19.39.31.51.54c.12.23.18.5.18.81v.26h-2.53v-.53h2.13l-.4.5v-.32c0-.18-.03-.33-.08-.45-.05-.12-.13-.21-.23-.27-.1-.06-.21-.09-.34-.09s-.24.03-.34.09c-.1.06-.18.16-.23.28s-.08.27-.08.45v.33c0,.17.03.31.08.43s.14.21.24.28c.1.06.23.1.37.1.12,0,.21-.02.3-.05s.15-.08.21-.14c.05-.05.09-.11.11-.17v-.02h.77v.03c-.03.11-.08.23-.14.34-.07.11-.16.22-.27.31-.11.1-.25.17-.42.23-.16.06-.35.08-.57.08-.31,0-.58-.06-.81-.19Z"/>
    <path class="cls-5" d="M60.48,67.11c-.23-.13-.4-.31-.53-.55s-.18-.52-.18-.85h0c0-.33.06-.61.19-.85s.3-.42.52-.55c.23-.13.49-.19.8-.19.28,0,.52.05.72.16.2.1.36.24.48.42.12.18.18.38.19.6v.02h-.78v-.03c-.03-.14-.09-.27-.19-.37-.1-.1-.24-.15-.41-.15-.14,0-.25.04-.35.11-.1.08-.18.18-.23.32-.05.14-.08.31-.08.5h0c0,.2.03.37.08.51.05.14.13.25.23.32.1.07.22.11.36.11.17,0,.3-.05.41-.14.1-.09.17-.22.19-.37v-.03h.78v.02c-.01.22-.08.42-.19.6-.12.18-.28.32-.48.42-.2.1-.44.16-.71.16-.31,0-.58-.06-.81-.19Z"/>
    <path class="cls-5" d="M63.09,63.11h.83v1.59h.02c.08-.19.2-.34.36-.44.16-.1.35-.15.58-.15s.42.05.58.15c.16.1.28.24.37.42s.13.39.13.64v1.93h-.84v-1.75c0-.21-.05-.38-.15-.5-.1-.12-.25-.18-.44-.18-.12,0-.23.03-.32.09-.09.06-.16.14-.21.24-.05.1-.08.22-.08.35v1.76h-.83v-4.13Z"/>
    <path class="cls-5" d="M67.1,67.11c-.23-.13-.4-.31-.53-.55s-.19-.52-.19-.86h0c0-.34.06-.62.19-.86s.3-.42.53-.55c.23-.13.49-.19.8-.19s.57.06.8.19c.23.13.41.31.53.55s.19.52.19.85h0c0,.34-.06.62-.19.86-.12.24-.3.42-.53.55-.23.13-.5.19-.8.19s-.58-.06-.81-.19ZM68.26,66.54c.1-.07.18-.18.23-.32.05-.14.08-.31.08-.51h0c0-.2-.03-.37-.08-.51-.06-.14-.13-.25-.23-.32-.1-.07-.22-.11-.35-.11s-.25.04-.35.11c-.1.07-.18.18-.23.32-.06.14-.08.31-.08.5h0c0,.21.03.38.08.52.05.14.13.25.23.32.1.07.22.11.36.11s.25-.04.35-.11Z"/>
    <path class="cls-5" d="M70.46,67.11c-.23-.13-.4-.31-.53-.55s-.19-.52-.19-.86h0c0-.34.06-.62.19-.86s.3-.42.53-.55c.23-.13.49-.19.8-.19s.57.06.8.19c.23.13.4.31.53.55s.19.52.19.85h0c0,.34-.06.62-.19.86-.12.24-.3.42-.53.55-.23.13-.5.19-.8.19s-.58-.06-.81-.19ZM71.62,66.54c.1-.07.18-.18.23-.32.05-.14.08-.31.08-.51h0c0-.2-.03-.37-.08-.51-.06-.14-.13-.25-.23-.32-.1-.07-.22-.11-.35-.11s-.25.04-.35.11c-.1.07-.18.18-.23.32-.05.14-.08.31-.08.5h0c0,.21.03.38.08.52.05.14.13.25.23.32.1.07.22.11.36.11s.25-.04.35-.11Z"/>
    <path class="cls-5" d="M73.75,67.18c-.2-.08-.35-.2-.46-.34-.11-.15-.18-.31-.2-.51v-.03s.81,0,.81,0v.03c.03.12.09.21.19.28.09.07.22.1.39.1.11,0,.2-.01.27-.04.08-.03.13-.06.17-.11s.06-.11.06-.17h0c0-.08-.03-.15-.09-.2-.06-.05-.16-.09-.31-.12l-.52-.11c-.3-.06-.52-.17-.67-.32-.15-.15-.23-.34-.23-.57h0c0-.2.05-.37.16-.51.11-.14.26-.25.45-.33.19-.08.42-.12.68-.12s.5.04.69.13c.19.09.34.2.44.35.1.15.16.31.16.49v.03h-.77v-.02c-.02-.11-.07-.2-.16-.27s-.21-.11-.36-.11c-.1,0-.18.01-.25.04-.07.03-.12.06-.16.11-.04.05-.06.1-.06.17h0c0,.08.03.15.09.2.06.05.17.1.32.13l.52.11c.32.07.55.17.69.3.14.13.21.31.21.54h0c0,.2-.06.38-.17.53s-.27.26-.47.35-.43.12-.7.12c-.28,0-.52-.04-.72-.12Z"/>
    <path class="cls-5" d="M76.82,67.11c-.23-.13-.4-.31-.52-.55s-.18-.52-.18-.85h0c0-.33.06-.61.18-.85s.29-.42.51-.55c.22-.13.48-.2.78-.2s.56.06.78.19.39.31.51.54c.12.23.18.5.18.81v.26h-2.53v-.53h2.13l-.4.5v-.32c0-.18-.03-.33-.08-.45-.05-.12-.13-.21-.23-.27-.1-.06-.21-.09-.34-.09s-.24.03-.34.09c-.1.06-.18.16-.23.28s-.08.27-.08.45v.33c0,.17.03.31.08.43s.14.21.24.28c.1.06.23.1.37.1.12,0,.21-.02.3-.05s.15-.08.21-.14c.05-.05.09-.11.11-.17v-.02h.77v.03c-.03.11-.08.23-.14.34-.07.11-.16.22-.27.31-.11.1-.25.17-.42.23-.16.06-.35.08-.57.08-.31,0-.58-.06-.81-.19Z"/>
    <path class="cls-5" d="M81.24,67.11c-.23-.13-.4-.31-.53-.55s-.19-.52-.19-.86h0c0-.34.06-.62.19-.86s.3-.42.53-.55c.23-.13.49-.19.8-.19s.57.06.8.19c.23.13.4.31.53.55s.19.52.19.85h0c0,.34-.06.62-.19.86-.12.24-.3.42-.53.55-.23.13-.5.19-.8.19s-.58-.06-.81-.19ZM82.4,66.54c.1-.07.18-.18.23-.32.05-.14.08-.31.08-.51h0c0-.2-.03-.37-.08-.51-.06-.14-.13-.25-.23-.32-.1-.07-.22-.11-.35-.11s-.25.04-.35.11c-.1.07-.18.18-.23.32-.05.14-.08.31-.08.5h0c0,.21.03.38.08.52.05.14.13.25.23.32.1.07.22.11.36.11s.25-.04.35-.11Z"/>
    <path class="cls-5" d="M83.99,64.17h.84v.5h.02c.08-.18.2-.31.35-.42.16-.1.35-.15.58-.15.34,0,.6.1.78.3.18.2.28.48.28.85v1.98h-.83v-1.81c0-.2-.05-.36-.14-.47-.09-.11-.24-.17-.42-.17-.12,0-.23.03-.32.09-.09.06-.16.14-.21.24-.05.1-.08.22-.08.35v1.76h-.84v-3.07Z"/>
    <path class="cls-5" d="M87.96,67.11c-.23-.13-.4-.31-.52-.55s-.18-.52-.18-.85h0c0-.33.06-.61.18-.85s.29-.42.51-.55c.22-.13.48-.2.78-.2s.56.06.78.19.39.31.51.54c.12.23.18.5.18.81v.26h-2.53v-.53h2.13l-.4.5v-.32c0-.18-.03-.33-.08-.45-.05-.12-.13-.21-.23-.27-.1-.06-.21-.09-.34-.09s-.24.03-.34.09c-.1.06-.18.16-.23.28s-.08.27-.08.45v.33c0,.17.03.31.08.43s.14.21.24.28c.1.06.23.1.37.1.12,0,.21-.02.3-.05s.15-.08.21-.14c.05-.05.09-.11.11-.17v-.02h.77v.03c-.03.11-.08.23-.14.34-.07.11-.16.22-.27.31-.11.1-.25.17-.42.23-.16.06-.35.08-.57.08-.31,0-.58-.06-.81-.19Z"/>
    <path class="cls-5" d="M92.38,67.11c-.23-.13-.4-.31-.53-.55s-.19-.52-.19-.86h0c0-.34.06-.62.19-.86s.3-.42.53-.55c.23-.13.49-.19.8-.19s.57.06.8.19c.23.13.4.31.53.55s.19.52.19.85h0c0,.34-.06.62-.19.86-.12.24-.3.42-.53.55-.23.13-.5.19-.8.19s-.58-.06-.81-.19ZM93.54,66.54c.1-.07.18-.18.23-.32.05-.14.08-.31.08-.51h0c0-.2-.03-.37-.08-.51-.06-.14-.13-.25-.23-.32-.1-.07-.22-.11-.35-.11s-.25.04-.35.11c-.1.07-.18.18-.23.32-.05.14-.08.31-.08.5h0c0,.21.03.38.08.52.05.14.13.25.23.32.1.07.22.11.36.11s.25-.04.35-.11Z"/>
    <path class="cls-5" d="M95.36,64.8h-.42v-.63h.42v-.24c0-.3.08-.52.23-.67.16-.14.42-.21.78-.21.08,0,.15,0,.23,0s.14.01.19.02v.55s-.06,0-.1-.01-.08,0-.11,0c-.14,0-.24.03-.3.09-.06.06-.1.14-.1.25v.21h.61v.63h-.59v2.44h-.83v-2.44Z"/>
    <path class="cls-5" d="M41.42,75.1c-.16-.14-.25-.38-.25-.71v-1.58h-.43v-.63h.43v-.75h.84v.75h.56v.63h-.56v1.49c0,.14.03.24.1.3.06.06.16.08.29.08.04,0,.07,0,.1,0,.03,0,.06,0,.08-.01v.61s-.1.01-.17.02-.15,0-.23,0c-.34,0-.59-.07-.75-.21Z"/>
    <path class="cls-5" d="M43.06,71.12h.83v1.59h.02c.08-.19.2-.34.36-.44.16-.1.35-.15.58-.15s.42.05.58.15c.16.1.28.24.37.42s.13.39.13.64v1.93h-.84v-1.75c0-.21-.05-.38-.15-.5-.1-.12-.25-.18-.44-.18-.12,0-.23.03-.32.09-.09.06-.16.14-.21.24-.05.1-.08.22-.08.35v1.76h-.83v-4.13Z"/>
    <path class="cls-5" d="M47.05,75.12c-.23-.13-.4-.31-.52-.55s-.18-.52-.18-.85h0c0-.33.06-.61.18-.85s.29-.42.51-.55c.22-.13.48-.2.78-.2s.56.06.78.19.39.31.51.54c.12.23.18.5.18.81v.26h-2.53v-.53h2.13l-.4.5v-.32c0-.18-.03-.33-.08-.45-.05-.12-.13-.21-.23-.27-.1-.06-.21-.09-.34-.09s-.24.03-.34.09c-.1.06-.18.16-.23.28s-.08.27-.08.45v.33c0,.17.03.31.08.43s.14.21.24.28c.1.06.23.1.37.1.12,0,.21-.02.3-.05s.15-.08.21-.14c.05-.05.09-.11.11-.17v-.02h.77v.03c-.03.11-.08.23-.14.34-.07.11-.16.22-.27.31-.11.1-.25.17-.42.23-.16.06-.35.08-.57.08-.31,0-.58-.06-.81-.19Z"/>
    <path class="cls-5" d="M51.41,75.19c-.2-.08-.35-.2-.46-.34-.11-.15-.18-.31-.2-.51v-.03s.81,0,.81,0v.03c.03.12.09.21.19.28.09.07.22.1.39.1.11,0,.2-.01.27-.04.07-.03.13-.06.17-.11s.06-.11.06-.17h0c0-.08-.03-.15-.09-.2-.06-.05-.16-.09-.31-.12l-.52-.11c-.3-.06-.52-.17-.67-.32-.15-.15-.23-.34-.23-.57h0c0-.2.05-.37.16-.51.11-.14.25-.25.45-.33.19-.08.42-.12.68-.12.27,0,.5.04.69.13.19.09.34.2.44.35.1.15.16.31.16.49v.03h-.77v-.02c-.02-.11-.07-.2-.16-.27s-.21-.11-.37-.11c-.09,0-.18.01-.25.04-.07.03-.12.06-.16.11-.04.05-.06.1-.06.17h0c0,.08.03.15.09.2.06.05.17.1.32.13l.52.11c.32.07.55.17.69.3.14.13.21.31.21.54h0c0,.2-.06.38-.17.53s-.27.26-.47.35-.43.12-.7.12c-.28,0-.52-.04-.72-.12Z"/>
    <path class="cls-5" d="M54.48,75.12c-.22-.13-.4-.31-.52-.55s-.18-.52-.18-.85h0c0-.33.06-.61.18-.85s.29-.42.51-.55c.22-.13.48-.2.78-.2s.56.06.78.19c.22.13.39.31.51.54s.18.5.18.81v.26h-2.53v-.53h2.13l-.4.5v-.32c0-.18-.03-.33-.08-.45-.06-.12-.13-.21-.23-.27-.1-.06-.21-.09-.34-.09s-.25.03-.34.09c-.1.06-.18.16-.24.28-.06.12-.08.27-.08.45v.33c0,.17.03.31.08.43.06.12.14.21.24.28.1.06.23.1.38.1.11,0,.21-.02.3-.05.08-.04.15-.08.21-.14.05-.05.09-.11.11-.17v-.02h.77v.03c-.03.11-.08.23-.14.34-.07.11-.16.22-.27.31-.11.1-.25.17-.41.23-.16.06-.35.08-.57.08-.31,0-.58-.06-.81-.19Z"/>
    <path class="cls-5" d="M57.52,75.18c-.16-.08-.28-.19-.36-.33-.09-.14-.13-.3-.13-.48h0c0-.28.1-.5.31-.66s.5-.25.88-.28l1.2-.08v.52l-1.07.07c-.16,0-.28.05-.37.11-.08.07-.13.15-.13.26h0c0,.12.04.21.13.27.09.06.2.1.35.1.12,0,.24-.02.33-.07.1-.05.17-.12.23-.2s.08-.18.08-.29v-.93c0-.13-.04-.24-.13-.32s-.21-.12-.38-.12-.28.03-.37.1c-.09.06-.15.15-.17.25v.03h-.77v-.03c.02-.19.08-.36.19-.5.11-.15.26-.26.46-.34.2-.08.43-.12.7-.12s.5.04.69.13.35.21.45.36c.11.15.16.33.16.54v2.1h-.83v-.46h-.02c-.06.1-.13.19-.22.27-.09.08-.19.13-.31.17-.12.04-.24.06-.37.06-.2,0-.38-.04-.54-.12Z"/>
    <path class="cls-5" d="M60.35,72.18h.83v.54h.02c.04-.19.13-.34.25-.44.12-.1.27-.16.45-.16.05,0,.09,0,.13,0s.08.01.11.02v.74s-.08-.03-.13-.04c-.05,0-.11-.01-.17-.01-.14,0-.25.03-.35.08-.1.05-.17.13-.22.23-.05.1-.08.23-.08.38v1.72h-.83v-3.07Z"/>
    <path class="cls-5" d="M62.98,75.12c-.23-.13-.4-.31-.53-.55s-.18-.52-.18-.85h0c0-.33.06-.61.19-.85s.3-.42.52-.55c.23-.13.49-.19.8-.19.28,0,.52.05.72.16.2.1.36.24.48.42.12.18.18.38.19.6v.02h-.78v-.03c-.03-.14-.09-.27-.19-.37-.1-.1-.24-.15-.41-.15-.14,0-.25.04-.35.11-.1.08-.18.18-.23.32-.05.14-.08.31-.08.5h0c0,.2.03.37.08.51.05.14.13.25.23.32.1.07.22.11.36.11.17,0,.3-.05.41-.14.1-.09.17-.22.19-.37v-.03h.78v.02c-.01.22-.08.42-.19.6-.12.18-.28.32-.48.42-.2.1-.44.16-.71.16-.31,0-.58-.06-.81-.19Z"/>
    <path class="cls-5" d="M65.59,71.12h.83v1.59h.02c.08-.19.2-.34.36-.44.16-.1.35-.15.58-.15s.42.05.58.15c.16.1.28.24.37.42s.13.39.13.64v1.93h-.84v-1.75c0-.21-.05-.38-.15-.5-.1-.12-.25-.18-.44-.18-.12,0-.23.03-.32.09-.09.06-.16.14-.21.24-.05.1-.08.22-.08.35v1.76h-.83v-4.13Z"/>
    <path class="cls-5" d="M70.76,75.12c-.23-.13-.4-.31-.53-.55s-.19-.52-.19-.86h0c0-.34.06-.62.19-.86s.3-.42.53-.55c.23-.13.49-.19.8-.19s.57.06.8.19c.23.13.4.31.53.55s.19.52.19.85h0c0,.34-.06.62-.19.86-.12.24-.3.42-.53.55-.23.13-.5.19-.8.19s-.58-.06-.81-.19ZM71.92,74.55c.1-.07.18-.18.23-.32.05-.14.08-.31.08-.51h0c0-.2-.03-.37-.08-.51-.06-.14-.13-.25-.23-.32-.1-.07-.22-.11-.35-.11s-.25.04-.35.11c-.1.07-.18.18-.23.32-.05.14-.08.31-.08.5h0c0,.21.03.38.08.52.05.14.13.25.23.32.1.07.22.11.36.11s.25-.04.35-.11Z"/>
    <path class="cls-5" d="M73.51,72.18h.84v.54h.02c.06-.12.13-.23.22-.32s.2-.16.32-.21.25-.07.4-.07c.26,0,.48.06.67.19.19.13.33.31.43.55.1.24.15.52.15.86h0c0,.33-.05.62-.15.86-.1.24-.24.42-.43.55-.18.13-.41.19-.66.19-.15,0-.28-.02-.4-.07s-.23-.11-.32-.2c-.09-.09-.17-.19-.22-.31h-.02v1.52h-.84v-4.07ZM75.39,74.51c.1-.07.18-.18.23-.31.05-.14.08-.3.08-.48h0c0-.19-.03-.35-.08-.49-.05-.13-.13-.24-.23-.31s-.22-.11-.36-.11-.25.04-.36.11c-.1.07-.18.18-.24.31-.06.14-.09.3-.09.48h0c0,.19.03.34.09.48s.14.24.24.31c.1.07.22.11.36.11s.26-.04.36-.11Z"/>
    <path class="cls-5" d="M77.45,75.1c-.16-.14-.25-.38-.25-.71v-1.58h-.43v-.63h.43v-.75h.84v.75h.56v.63h-.56v1.49c0,.14.03.24.1.3.06.06.16.08.28.08.04,0,.07,0,.1,0,.03,0,.05,0,.08-.01v.61s-.1.01-.17.02c-.07,0-.15,0-.23,0-.34,0-.59-.07-.76-.21Z"/>
    <path class="cls-5" d="M79.19,71.66c-.09-.09-.13-.19-.13-.31s.04-.22.13-.31.19-.13.32-.13.23.04.32.13.13.19.13.31-.04.22-.13.31-.19.13-.32.13-.23-.04-.32-.13ZM79.09,72.18h.84v3.07h-.84v-3.07Z"/>
    <path class="cls-5" d="M81.08,75.12c-.23-.13-.4-.31-.53-.55s-.19-.52-.19-.86h0c0-.34.06-.62.19-.86s.3-.42.53-.55c.23-.13.49-.19.8-.19s.57.06.8.19c.23.13.41.31.53.55s.19.52.19.85h0c0,.34-.06.62-.19.86-.12.24-.3.42-.53.55-.23.13-.5.19-.8.19s-.58-.06-.81-.19ZM82.25,74.55c.1-.07.18-.18.23-.32.05-.14.08-.31.08-.51h0c0-.2-.03-.37-.08-.51-.06-.14-.13-.25-.23-.32-.1-.07-.22-.11-.35-.11s-.25.04-.35.11c-.1.07-.18.18-.23.32-.06.14-.08.31-.08.5h0c0,.21.03.38.08.52.05.14.13.25.23.32.1.07.22.11.36.11s.25-.04.35-.11Z"/>
    <path class="cls-5" d="M83.84,72.18h.83v.5h.02c.08-.18.2-.31.35-.42.16-.1.35-.15.58-.15.34,0,.6.1.78.3.18.2.28.48.28.85v1.98h-.84v-1.81c0-.2-.05-.36-.14-.47s-.24-.17-.42-.17c-.12,0-.23.03-.32.09-.09.06-.16.14-.21.24-.05.1-.08.22-.08.35v1.76h-.83v-3.07Z"/>
    <path class="cls-5" d="M87.76,75.19c-.2-.08-.35-.2-.46-.34-.11-.15-.18-.31-.2-.51v-.03s.81,0,.81,0v.03c.03.12.09.21.19.28.09.07.22.1.39.1.11,0,.2-.01.27-.04.07-.03.13-.06.17-.11s.06-.11.06-.17h0c0-.08-.03-.15-.09-.2-.06-.05-.16-.09-.31-.12l-.52-.11c-.3-.06-.52-.17-.67-.32-.15-.15-.23-.34-.23-.57h0c0-.2.05-.37.16-.51.11-.14.25-.25.45-.33.19-.08.42-.12.68-.12.27,0,.5.04.69.13.19.09.34.2.44.35.1.15.16.31.16.49v.03h-.77v-.02c-.02-.11-.07-.2-.16-.27s-.21-.11-.37-.11c-.09,0-.18.01-.25.04-.07.03-.12.06-.16.11-.04.05-.06.1-.06.17h0c0,.08.03.15.09.2.06.05.17.1.32.13l.52.11c.32.07.55.17.69.3.14.13.21.31.21.54h0c0,.2-.06.38-.17.53s-.27.26-.47.35-.43.12-.7.12c-.28,0-.52-.04-.72-.12Z"/>
  </g>
  <g>
    <g>
      <path class="cls-7" d="M45.34,82.95v.51h49.11v8.63h-49.11c-2.29,0-4.15-1.86-4.15-4.15v-.33c0-2.29,1.86-4.15,4.15-4.15v-.51M45.34,82.95c-2.57,0-4.66,2.08-4.66,4.66v.33c0,2.57,2.09,4.66,4.66,4.66h49.62v-9.65h-49.62Z"/>
      <path class="cls-7" d="M87.21,82.95h39.29v9.65h-39.29c-2.57,0-4.66-2.09-4.66-4.66v-.33c0-2.57,2.09-4.66,4.66-4.66Z" transform="translate(209.05 175.55) rotate(-180)"/>
      <rect class="cls-7" x="41.03" y="96.59" width="85.47" height="8.93" rx="4.31" ry="4.31"/>
    </g>
    <path class="cls-2" d="M47.78,102.32c.24-.35.36-.78.36-1.24h0c-.02-1.01-.7-2.03-2.17-2.03-.66,0-1.21.21-1.6.6-.38.38-.58.9-.58,1.48,0,1.03.68,2.06,2.17,2.06.45,0,.84-.09,1.15-.27l.51.47.65-.61-.5-.46ZM47.24,101.06c.02.36-.11.7-.34.94-.23.24-.55.37-.92.37-.82,0-1.26-.62-1.27-1.23,0-.37.12-.71.35-.95.23-.23.54-.35.92-.35,1.12,0,1.25.93,1.27,1.22Z"/>
    <g>
      <path class="cls-2" d="M93.02,86.37h.58v2.75h-.58v-2.75ZM93.31,88.7h.78c.16,0,.29-.03.38-.1.09-.07.13-.16.13-.29h0c0-.09-.02-.16-.06-.22-.04-.06-.1-.1-.18-.13-.08-.03-.18-.04-.29-.04h-.76v-.39h.69c.16,0,.29-.03.37-.1.08-.06.13-.16.13-.28h0c0-.11-.04-.2-.11-.26-.08-.06-.18-.09-.31-.09h-.76v-.43h.91c.17,0,.33.03.45.08.13.06.22.14.29.24.07.1.1.23.1.37h0c0,.11-.02.2-.07.29-.05.09-.11.16-.19.21-.08.06-.17.09-.27.11h0c.13.02.24.05.34.11.1.06.18.14.23.23.06.1.08.21.08.33h0c0,.16-.04.3-.12.42s-.19.21-.33.27c-.14.06-.31.1-.51.1h-.93v-.43Z"/>
      <path class="cls-2" d="M95.64,89.79c-.05,0-.09-.01-.13-.02v-.42s.04,0,.08.01c.03,0,.07,0,.11,0,.08,0,.15-.01.2-.04.05-.03.08-.08.11-.15l.02-.07-.72-2.05h.61l.46,1.71-.07-.11h.1l-.07.11.46-1.71h.59l-.7,2.08c-.05.16-.12.29-.2.38s-.18.16-.29.2c-.11.04-.25.06-.4.06-.05,0-.11,0-.16,0Z"/>
      <path class="cls-2" d="M99.19,89.06c-.11-.07-.19-.17-.25-.29h-.01v.35h-.56v-2.75h.56v1.06h.01c.06-.12.14-.22.25-.29.11-.07.24-.11.38-.11.17,0,.32.04.44.13s.22.21.29.37c.07.16.1.35.1.57h0c0,.22-.03.41-.1.57s-.16.28-.29.37-.27.13-.45.13c-.15,0-.28-.04-.38-.1ZM99.63,88.63c.07-.05.12-.12.16-.21.04-.09.05-.2.05-.32h0c0-.13-.02-.23-.05-.32-.04-.09-.09-.16-.16-.21-.07-.05-.15-.07-.24-.07s-.17.02-.24.07c-.07.05-.12.12-.16.21-.04.09-.06.2-.06.32h0c0,.12.02.23.06.32.04.09.09.16.16.21.07.05.15.07.24.07s.17-.02.24-.07Z"/>
      <path class="cls-2" d="M101.09,89.04c-.15-.08-.27-.21-.35-.37-.08-.16-.12-.35-.12-.57h0c0-.22.04-.41.13-.57.08-.16.2-.28.35-.37.15-.08.33-.13.53-.13s.38.04.54.13c.15.08.27.21.35.37.08.16.13.35.13.57h0c0,.23-.04.42-.12.58s-.2.28-.35.37-.33.13-.54.13-.39-.04-.54-.13ZM101.87,88.66c.07-.05.12-.12.15-.21s.05-.21.05-.34h0c0-.13-.02-.25-.05-.34s-.09-.17-.16-.21c-.07-.05-.15-.07-.24-.07s-.17.02-.23.07c-.07.05-.12.12-.16.21s-.06.21-.06.34h0c0,.14.02.25.05.34s.09.17.16.21c.07.05.15.07.24.07s.17-.02.23-.07Z"/>
      <path class="cls-2" d="M103.24,89.04c-.12-.08-.22-.21-.29-.37s-.1-.35-.1-.57h0c0-.22.03-.42.1-.57.07-.16.16-.28.29-.37s.27-.13.44-.13c.15,0,.27.04.38.11.11.07.19.17.25.29h.01v-1.06h.56v2.75h-.56v-.35h-.01c-.05.12-.14.22-.25.29-.11.07-.24.1-.38.1-.17,0-.32-.04-.45-.13ZM104.11,88.63c.07-.05.12-.12.16-.21.04-.09.06-.2.06-.32h0c0-.12-.02-.23-.06-.32-.04-.09-.09-.16-.16-.21-.07-.05-.15-.07-.24-.07s-.17.02-.24.07c-.07.05-.12.12-.16.21-.04.09-.06.2-.06.32h0c0,.12.02.23.05.32.04.09.09.16.16.21.07.05.15.07.24.07s.17-.02.24-.07Z"/>
      <path class="cls-2" d="M105.42,89.79c-.05,0-.09-.01-.13-.02v-.42s.04,0,.08.01c.03,0,.07,0,.11,0,.08,0,.15-.01.2-.04.05-.03.08-.08.11-.15l.02-.07-.72-2.05h.61l.46,1.71-.07-.11h.1l-.07.11.46-1.71h.59l-.7,2.08c-.05.16-.12.29-.2.38s-.18.16-.29.2c-.11.04-.25.06-.4.06-.05,0-.11,0-.16,0Z"/>
      <path class="cls-2" d="M108.14,87.08h.56v.36h.01c.04-.08.08-.15.15-.21.06-.06.13-.11.21-.14s.17-.05.27-.05c.17,0,.32.04.45.13.12.08.22.21.29.37.07.16.1.35.1.57h0c0,.22-.03.41-.1.57-.07.16-.16.28-.29.37-.12.08-.27.13-.44.13-.1,0-.19-.02-.27-.05-.08-.03-.15-.08-.22-.13-.06-.06-.11-.13-.15-.21h-.01v1.02h-.56v-2.71ZM109.39,88.63c.07-.05.12-.12.16-.21.04-.09.05-.2.05-.32h0c0-.13-.02-.23-.06-.32s-.09-.16-.16-.21c-.07-.05-.15-.07-.24-.07s-.17.02-.24.07c-.07.05-.12.12-.16.21-.04.09-.06.2-.06.32h0c0,.12.02.23.06.32.04.09.09.16.16.21.07.05.15.07.24.07s.17-.02.24-.07Z"/>
      <path class="cls-2" d="M110.71,89.08c-.1-.05-.18-.13-.24-.22-.06-.09-.09-.2-.09-.32h0c0-.19.07-.34.21-.44.14-.11.34-.17.59-.18l.8-.05v.35l-.71.05c-.11,0-.19.03-.25.08-.06.04-.08.1-.08.17h0c0,.08.03.14.09.18.06.04.13.06.23.06.08,0,.16-.02.22-.05s.12-.08.15-.13.06-.12.06-.19v-.62c0-.09-.03-.16-.09-.21-.06-.05-.14-.08-.25-.08s-.19.02-.25.06c-.06.04-.1.1-.11.16v.02h-.52v-.02c.01-.13.06-.24.13-.34.07-.1.17-.17.31-.23s.29-.08.46-.08.33.03.46.08.23.14.3.24c.07.1.11.22.11.36v1.4h-.56v-.3h-.01c-.04.07-.09.13-.15.18-.06.05-.13.09-.21.12-.08.03-.16.04-.25.04-.14,0-.26-.03-.36-.08Z"/>
      <path class="cls-2" d="M112.6,87.08h.56v.36h.01c.03-.13.09-.22.17-.29.08-.07.18-.11.3-.11.03,0,.06,0,.09,0,.03,0,.05,0,.07.02v.49s-.05-.02-.09-.02c-.04,0-.07,0-.11,0-.09,0-.17.02-.24.05-.06.04-.11.09-.15.16-.04.07-.05.15-.05.25v1.15h-.56v-2.05Z"/>
      <path class="cls-2" d="M114.33,89.02c-.11-.09-.16-.25-.16-.47v-1.05h-.28v-.42h.28v-.5h.56v.5h.37v.42h-.37v.99c0,.1.02.16.06.2.04.04.11.06.19.06.03,0,.05,0,.07,0,.02,0,.04,0,.05,0v.41s-.07,0-.11.01c-.05,0-.1,0-.16,0-.23,0-.39-.05-.5-.14Z"/>
    </g>
    <g>
      <path class="cls-2" d="M58.5,86.37h.51v.53h-.18l-.69,2.22h-.61l.96-2.75ZM58.19,88.03h1.29l.14.43h-1.57l.14-.43ZM58.84,86.9v-.53h.33l.96,2.75h-.61l-.69-2.22Z"/>
      <path class="cls-2" d="M60.35,87.76h1.24v.49h-1.24v-.49Z"/>
      <path class="cls-2" d="M61.96,88.75l1.4-1.89h0s-1.37-.01-1.37-.01v-.48h2.06v.38l-1.4,1.89h0s1.43.01,1.43.01v.48h-2.13v-.38Z"/>
      <path class="cls-2" d="M65.22,86.37h.56v2.75h-.56v-2.75Z"/>
      <path class="cls-2" d="M66.24,86.73c-.06-.06-.09-.13-.09-.21s.03-.15.09-.21.13-.08.21-.08.16.03.21.08c.06.06.09.12.09.21s-.03.15-.09.21c-.06.06-.13.09-.21.09s-.16-.03-.21-.09ZM66.17,87.08h.56v2.05h-.56v-2.05Z"/>
      <path class="cls-2" d="M67.46,89.09c-.13-.05-.24-.13-.31-.23-.07-.1-.12-.21-.13-.34v-.02s.54,0,.54,0v.02c.02.08.06.14.12.19s.15.07.26.07c.07,0,.13,0,.18-.03s.09-.04.12-.07c.03-.03.04-.07.04-.12h0c0-.06-.02-.1-.06-.13-.04-.03-.11-.06-.21-.08l-.35-.07c-.2-.04-.35-.11-.45-.21s-.15-.23-.15-.38h0c0-.13.04-.25.11-.34.07-.1.17-.17.3-.22.13-.05.28-.08.45-.08s.33.03.46.09c.13.06.22.14.29.23.07.1.1.21.11.33v.02h-.51c0-.09-.04-.15-.1-.2s-.14-.07-.24-.07c-.06,0-.12,0-.17.03-.05.02-.08.04-.11.07-.03.03-.04.07-.04.12h0c0,.05.02.1.06.13.04.04.11.06.21.09l.35.07c.22.04.37.11.46.2.09.09.14.21.14.36h0c0,.13-.04.25-.11.35-.08.1-.18.18-.32.23-.13.06-.29.08-.46.08-.19,0-.35-.03-.48-.08Z"/>
      <path class="cls-2" d="M69.42,89.02c-.11-.09-.16-.25-.16-.47v-1.05h-.28v-.42h.28v-.5h.56v.5h.37v.42h-.37v.99c0,.1.02.16.06.2.04.04.11.06.19.06.03,0,.05,0,.07,0,.02,0,.04,0,.05,0v.41s-.07,0-.11.01c-.05,0-.1,0-.16,0-.23,0-.39-.05-.5-.14Z"/>
    </g>
  </g>
  <g class="cls-8">
    <rect class="cls-11" x="40.68" y="150.76" width="96.46" height="10.66" rx="5.07" ry="5.07"/>
    <rect class="cls-11" x="40.68" y="137" width="96.46" height="10.66" rx="1.89" ry="1.89"/>
    <rect class="cls-10" x="40.68" y="123.23" width="85.82" height="10.66" rx="1.89" ry="1.89"/>
    <rect class="cls-10" x="40.68" y="109.47" width="85.82" height="10.66" rx="1.89" ry="1.89"/>
    <g>
      <path class="cls-7" d="M44.58,113.96h.33l1.77,2.55-.43-.41h.15v-2.13h.33v2.7h-.33l-1.77-2.55.43.41h-.15v2.13h-.33v-2.7Z"/>
      <path class="cls-7" d="M47.54,116.58c-.13-.08-.24-.2-.32-.35-.08-.15-.11-.33-.11-.54h0c0-.21.04-.39.11-.54.08-.15.18-.27.32-.35.14-.08.29-.12.47-.12s.34.04.47.12c.14.08.24.2.32.35.08.15.11.33.11.54h0c0,.21-.04.39-.11.54-.08.15-.18.27-.32.35-.13.08-.29.12-.47.12s-.34-.04-.47-.12ZM48.32,116.33c.08-.06.15-.14.2-.25.05-.11.07-.24.07-.39h0c0-.16-.02-.29-.07-.39s-.11-.19-.2-.25c-.09-.06-.19-.08-.3-.08s-.21.03-.3.08c-.09.06-.15.14-.2.25-.05.11-.07.24-.07.39h0c0,.16.02.29.07.39.05.11.11.19.2.25.08.06.19.08.3.08s.21-.03.3-.08Z"/>
      <path class="cls-7" d="M49.54,116.63c-.11-.05-.2-.12-.26-.21-.06-.09-.1-.19-.12-.3v-.02s.32,0,.32,0v.02c.02.1.07.17.14.23.07.05.18.08.31.08.09,0,.16-.01.23-.03.06-.02.11-.06.14-.1.03-.04.05-.09.05-.15h0c0-.07-.02-.13-.06-.17s-.12-.08-.23-.1l-.31-.08c-.18-.04-.32-.11-.41-.2s-.14-.2-.14-.34h0c0-.11.03-.21.09-.3.06-.09.15-.15.25-.2.11-.05.23-.07.37-.07s.27.03.37.08c.11.05.19.12.25.21.06.09.09.18.1.29v.02s-.31,0-.31,0h0c-.01-.11-.05-.18-.12-.24-.07-.06-.17-.09-.29-.09-.08,0-.15.01-.2.04-.06.02-.1.06-.13.1s-.05.09-.05.15h0c0,.07.02.12.07.17.05.05.12.08.23.11l.31.08c.2.05.34.11.42.2s.12.19.12.33h0c0,.12-.03.22-.1.3-.07.09-.16.16-.27.21-.11.05-.24.07-.39.07-.15,0-.28-.02-.4-.07Z"/>
      <path class="cls-7" d="M51.35,116.58c-.13-.08-.24-.2-.31-.35-.07-.15-.11-.33-.11-.53h0c0-.2.04-.38.11-.53.07-.15.17-.27.31-.36.13-.08.29-.13.46-.13s.33.04.46.12c.13.08.23.2.29.34.07.15.1.32.1.51v.12h-1.57v-.25h1.41l-.16.24v-.13c0-.15-.02-.28-.07-.38-.05-.1-.11-.17-.19-.22s-.17-.07-.28-.07-.2.03-.28.08c-.08.05-.15.12-.19.22-.05.1-.07.22-.07.37v.13c0,.14.02.25.07.35s.11.17.2.22.19.08.31.08c.08,0,.16-.01.22-.04.06-.03.12-.06.16-.1s.08-.09.09-.15v-.02h.33v.02c-.02.08-.05.15-.1.22-.05.07-.1.13-.18.18-.07.05-.15.09-.24.12s-.19.04-.3.04c-.19,0-.35-.04-.48-.12Z"/>
      <path class="cls-7" d="M54.38,116.61c-.11-.07-.19-.16-.25-.27h0v.33h-.33v-2.7h.33v1.08h0c.06-.11.15-.2.25-.27.11-.07.23-.1.37-.1.16,0,.31.04.43.12s.22.2.29.35c.07.15.1.33.1.53h0c0,.21-.03.38-.1.54-.07.15-.17.27-.29.35s-.27.12-.44.12c-.14,0-.26-.03-.37-.1ZM54.98,116.33c.08-.06.15-.14.19-.25.05-.11.07-.24.07-.39h0c0-.15-.02-.28-.07-.39-.04-.11-.11-.19-.19-.25s-.18-.09-.3-.09-.21.03-.29.09c-.08.06-.15.14-.2.25-.05.11-.07.23-.07.38h0c0,.15.02.27.07.38.05.11.12.19.2.25s.18.09.29.09.21-.03.3-.09Z"/>
      <path class="cls-7" d="M55.92,113.96h.33v2.7h-.33v-2.7Z"/>
      <path class="cls-7" d="M57.01,116.58c-.13-.08-.24-.2-.31-.35-.07-.15-.11-.33-.11-.53h0c0-.2.04-.38.11-.53.07-.15.17-.27.31-.36.13-.08.29-.13.46-.13s.33.04.46.12c.13.08.23.2.29.34.07.15.1.32.1.51v.12h-1.57v-.25h1.41l-.17.24v-.13c0-.15-.02-.28-.07-.38s-.11-.17-.19-.22c-.08-.05-.17-.07-.28-.07s-.2.03-.28.08c-.08.05-.15.12-.2.22-.05.1-.07.22-.07.37v.13c0,.14.02.25.07.35s.11.17.2.22c.09.05.19.08.31.08.08,0,.16-.01.22-.04.07-.03.12-.06.16-.1.04-.04.08-.09.09-.15v-.02h.33v.02c-.02.08-.05.15-.1.22-.04.07-.1.13-.17.18-.07.05-.15.09-.24.12-.09.03-.19.04-.3.04-.19,0-.35-.04-.48-.12Z"/>
      <path class="cls-7" d="M58.97,116.58c-.13-.08-.24-.2-.31-.35-.07-.15-.11-.33-.11-.53h0c0-.2.04-.38.11-.53.07-.15.17-.27.31-.36.13-.08.29-.13.46-.13s.33.04.46.12c.13.08.23.2.29.34.07.15.1.32.1.51v.12h-1.57v-.25h1.41l-.17.24v-.13c0-.15-.02-.28-.07-.38s-.11-.17-.19-.22c-.08-.05-.17-.07-.28-.07s-.2.03-.28.08c-.08.05-.15.12-.2.22-.05.1-.07.22-.07.37v.13c0,.14.02.25.07.35s.11.17.2.22c.09.05.19.08.31.08.08,0,.16-.01.22-.04.07-.03.12-.06.16-.1.04-.04.08-.09.09-.15v-.02h.33v.02c-.02.08-.05.15-.1.22-.04.07-.1.13-.17.18-.07.05-.15.09-.24.12-.09.03-.19.04-.3.04-.19,0-.35-.04-.48-.12Z"/>
      <path class="cls-7" d="M60.92,116.58c-.12-.08-.22-.2-.29-.35-.07-.15-.1-.33-.1-.53h0c0-.21.03-.38.1-.54s.17-.27.29-.35c.12-.08.27-.12.43-.12.14,0,.26.03.37.1.11.06.19.15.25.27h0v-1.08h.33v2.7h-.33v-.33h0c-.06.11-.14.2-.25.27s-.23.1-.37.1c-.17,0-.31-.04-.43-.12ZM61.71,116.33c.08-.06.15-.14.2-.25s.07-.24.07-.38h0c0-.15-.02-.27-.07-.38-.05-.11-.12-.19-.2-.25-.08-.06-.18-.09-.29-.09-.12,0-.21.03-.3.09-.08.06-.15.14-.19.25s-.07.24-.07.38h0c0,.15.02.28.07.39.04.11.11.19.19.25.08.06.18.09.3.09s.21-.03.29-.09Z"/>
      <path class="cls-7" d="M44.58,127.53h.33l1.77,2.55-.43-.41h.15v-2.13h.33v2.7h-.33l-1.77-2.55.43.41h-.15v2.13h-.33v-2.7Z"/>
      <path class="cls-7" d="M47.54,130.15c-.13-.08-.24-.2-.32-.35-.08-.15-.11-.33-.11-.54h0c0-.21.04-.39.11-.54.08-.15.18-.27.32-.35.14-.08.29-.12.47-.12s.34.04.47.12c.14.08.24.2.32.35.08.15.11.33.11.54h0c0,.21-.04.39-.11.54-.08.15-.18.27-.32.35-.13.08-.29.12-.47.12s-.34-.04-.47-.12ZM48.32,129.9c.08-.06.15-.14.2-.25.05-.11.07-.24.07-.39h0c0-.16-.02-.29-.07-.39s-.11-.19-.2-.25c-.09-.06-.19-.08-.3-.08s-.21.03-.3.08c-.09.06-.15.14-.2.25-.05.11-.07.24-.07.39h0c0,.16.02.29.07.39.05.11.11.19.2.25.08.06.19.08.3.08s.21-.03.3-.08Z"/>
      <path class="cls-7" d="M49.54,130.2c-.11-.05-.2-.12-.26-.21-.06-.09-.1-.19-.12-.3v-.02s.32,0,.32,0v.02c.02.1.07.17.14.23.07.05.18.08.31.08.09,0,.16-.01.23-.03.06-.02.11-.06.14-.1.03-.04.05-.09.05-.15h0c0-.07-.02-.13-.06-.17s-.12-.08-.23-.1l-.31-.08c-.18-.04-.32-.11-.41-.2s-.14-.2-.14-.34h0c0-.11.03-.21.09-.3.06-.09.15-.15.25-.2.11-.05.23-.07.37-.07s.27.03.37.08c.11.05.19.12.25.21.06.09.09.18.1.29v.02s-.31,0-.31,0h0c-.01-.11-.05-.18-.12-.24-.07-.06-.17-.09-.29-.09-.08,0-.15.01-.2.04-.06.02-.1.06-.13.1s-.05.09-.05.15h0c0,.07.02.12.07.17.05.05.12.08.23.11l.31.08c.2.05.34.11.42.2s.12.19.12.33h0c0,.12-.03.22-.1.3-.07.09-.16.16-.27.21-.11.05-.24.07-.39.07-.15,0-.28-.02-.4-.07Z"/>
      <path class="cls-7" d="M51.35,130.15c-.13-.08-.24-.2-.31-.35-.07-.15-.11-.33-.11-.53h0c0-.2.04-.38.11-.53.07-.15.17-.27.31-.36.13-.08.29-.13.46-.13s.33.04.46.12c.13.08.23.2.29.34.07.15.1.32.1.51v.12h-1.57v-.25h1.41l-.16.24v-.13c0-.15-.02-.28-.07-.38-.05-.1-.11-.17-.19-.22s-.17-.07-.28-.07-.2.03-.28.08c-.08.05-.15.12-.19.22-.05.1-.07.22-.07.37v.13c0,.14.02.25.07.35s.11.17.2.22.19.08.31.08c.08,0,.16-.01.22-.04.06-.03.12-.06.16-.1s.08-.09.09-.15v-.02h.33v.02c-.02.08-.05.15-.1.22-.05.07-.1.13-.18.18-.07.05-.15.09-.24.12s-.19.04-.3.04c-.19,0-.35-.04-.48-.12Z"/>
      <path class="cls-7" d="M53.82,127.9s-.06-.09-.06-.14.02-.11.06-.14.09-.06.14-.06.11.02.15.06.06.09.06.14-.02.1-.06.14-.09.06-.15.06-.1-.02-.14-.06ZM53.8,128.29h.33v1.95h-.33v-1.95Z"/>
      <path class="cls-7" d="M54.57,128.29h.33v.28h0c.05-.09.13-.17.23-.23.1-.06.22-.09.37-.09.21,0,.38.06.5.19.12.13.18.31.18.53v1.26h-.33v-1.21c0-.16-.04-.28-.11-.36-.07-.08-.19-.13-.34-.13-.1,0-.19.02-.27.07-.08.05-.13.11-.18.19-.04.08-.06.18-.06.29v1.15h-.33v-1.95Z"/>
      <path class="cls-7" d="M56.3,130.9s-.02,0-.03,0v-.29h.05c.11,0,.18-.02.22-.06.04-.04.06-.11.06-.22v-2.03h.33v2.03c0,.2-.05.34-.15.44-.1.09-.25.14-.46.14h-.03ZM56.63,127.9s-.06-.09-.06-.14.02-.11.06-.14.09-.06.14-.06.11.02.14.06c.04.04.06.09.06.14s-.02.1-.06.14c-.04.04-.09.06-.14.06s-.1-.02-.14-.06Z"/>
      <path class="cls-7" d="M57.68,130.19c-.1-.06-.18-.14-.23-.25-.05-.11-.08-.24-.08-.38v-1.26h.33v1.21c0,.16.04.28.11.36.07.08.19.13.34.13.1,0,.19-.02.27-.07s.13-.11.18-.19.06-.18.06-.29v-1.15h.33v1.95h-.33v-.28h0c-.05.09-.13.17-.23.23-.1.06-.22.09-.37.09s-.26-.03-.36-.09Z"/>
      <path class="cls-7" d="M59.4,128.29h.33v.33h0c.03-.11.09-.2.17-.27.08-.07.17-.1.28-.1.03,0,.05,0,.08,0,.02,0,.04,0,.05,0v.32s-.03,0-.07-.01c-.03,0-.07,0-.11,0-.08,0-.16.02-.22.06-.06.04-.11.09-.15.16-.03.07-.05.16-.05.25v1.2h-.33v-1.95Z"/>
      <path class="cls-7" d="M60.67,130.89s-.06,0-.08-.01v-.27s.03,0,.05,0c.02,0,.04,0,.06,0,.1,0,.19-.02.25-.05.06-.04.11-.11.15-.22l.04-.11-.72-1.95h.35l.56,1.7-.07-.08h.1l-.07.08.56-1.7h.34l-.76,2.07c-.05.12-.1.22-.16.3-.06.08-.13.14-.21.17-.08.04-.18.06-.3.06-.03,0-.06,0-.09,0Z"/>
      <path class="cls-7" d="M45.05,143.68c-.18-.12-.33-.28-.43-.49-.1-.21-.15-.46-.15-.74h0c0-.29.05-.53.15-.74.1-.21.24-.37.43-.48.19-.11.4-.17.65-.17.19,0,.36.04.51.11.15.07.28.17.38.3.1.13.17.28.21.45v.02s-.34,0-.34,0v-.04c-.05-.11-.1-.2-.17-.28s-.15-.14-.25-.18-.21-.06-.34-.06c-.18,0-.34.04-.47.13-.13.09-.24.21-.31.38-.07.16-.11.35-.11.57h0c0,.22.04.41.11.57s.18.29.31.38c.13.09.29.13.47.13.13,0,.24-.02.34-.06.1-.04.18-.1.26-.18.07-.08.13-.18.17-.3v-.02h.35v.02c-.04.17-.11.32-.21.45s-.23.23-.38.3c-.15.07-.32.1-.51.1-.25,0-.47-.06-.65-.17Z"/>
      <path class="cls-7" d="M47.49,143.72c-.14-.08-.24-.2-.32-.35-.08-.15-.11-.33-.11-.54h0c0-.21.04-.39.11-.54.08-.15.18-.27.32-.35.14-.08.29-.12.47-.12s.34.04.47.12c.13.08.24.2.32.35.08.15.11.33.11.54h0c0,.21-.04.39-.11.54-.08.15-.18.27-.32.35-.14.08-.29.12-.47.12s-.34-.04-.47-.12ZM48.27,143.47c.08-.06.15-.14.2-.25.05-.11.07-.24.07-.39h0c0-.16-.02-.29-.07-.39-.05-.11-.11-.19-.2-.25-.08-.06-.19-.08-.3-.08s-.21.03-.3.08c-.08.06-.15.14-.2.25-.05.11-.07.24-.07.39h0c0,.16.02.29.07.39.05.11.11.19.2.25.09.06.19.08.3.08s.21-.03.3-.08Z"/>
      <path class="cls-7" d="M49.49,143.76c-.1-.06-.18-.14-.23-.25-.05-.11-.08-.24-.08-.38v-1.26h.33v1.21c0,.16.04.28.11.36.07.08.19.13.34.13.1,0,.19-.02.27-.07s.14-.11.18-.19c.04-.08.06-.18.06-.29v-1.15h.33v1.95h-.33v-.28h0c-.05.09-.13.17-.23.23-.1.06-.22.09-.37.09-.14,0-.26-.03-.36-.09Z"/>
      <path class="cls-7" d="M51.62,144.43c-.12-.05-.21-.11-.29-.19s-.12-.17-.14-.26v-.02s.32,0,.32,0v.02c.04.07.1.12.19.17.09.04.2.06.33.06.17,0,.3-.04.4-.13s.14-.21.14-.36v-.25h0c-.04.07-.09.13-.15.19-.06.05-.13.09-.21.12-.08.03-.17.04-.26.04-.16,0-.31-.04-.43-.12s-.22-.2-.29-.35-.1-.33-.1-.53h0c0-.2.04-.38.11-.53.07-.15.17-.26.29-.35.12-.08.27-.12.43-.12.09,0,.18.02.25.05.08.03.15.07.21.13s.11.12.15.19h0v-.33h.33v1.89c0,.15-.03.28-.1.39-.07.11-.17.2-.3.26-.13.06-.28.09-.46.09-.16,0-.3-.02-.42-.07ZM52.31,143.45c.08-.06.15-.14.2-.25s.07-.23.07-.38h0c0-.15-.02-.27-.07-.38-.05-.11-.11-.19-.2-.25-.08-.06-.18-.09-.29-.09-.12,0-.21.03-.3.09-.08.06-.15.14-.2.25-.05.11-.07.23-.07.38h0c0,.15.02.28.07.38.04.11.11.19.2.25.08.06.18.09.3.09s.21-.03.29-.09Z"/>
      <path class="cls-7" d="M53.34,141.11h.33v1.07h0c.05-.11.13-.2.23-.26.1-.06.23-.09.37-.09s.26.03.36.1c.1.07.19.16.25.28.06.12.09.26.09.41v1.19h-.33v-1.14c0-.18-.04-.31-.13-.41-.08-.1-.2-.15-.36-.15-.1,0-.19.02-.26.07-.08.05-.13.11-.18.2-.04.08-.06.18-.06.29v1.14h-.33v-2.7Z"/>
      <path class="cls-7" d="M55.42,143.42h.34l-.27.92h-.23l.17-.92Z"/>
      <path class="cls-7" d="M57.14,143.72c-.14-.08-.24-.2-.31-.35-.07-.15-.11-.33-.11-.54h0c0-.21.04-.38.11-.54.08-.15.18-.27.31-.35.14-.08.29-.12.47-.12.16,0,.3.03.42.09.12.06.21.14.27.24.07.1.11.21.12.32h0s-.32.01-.32.01h0c-.02-.11-.08-.2-.16-.27-.08-.07-.19-.11-.34-.11-.11,0-.21.03-.3.09-.08.06-.15.14-.2.25-.05.11-.07.24-.07.38h0c0,.15.02.28.07.39.05.11.12.19.2.25.08.06.18.09.3.09.13,0,.24-.03.32-.1.08-.07.14-.16.17-.26h0s.32-.01.32-.01h0c-.02.14-.06.25-.14.35-.07.1-.17.18-.28.24-.12.06-.25.09-.39.09-.18,0-.34-.04-.48-.12Z"/>
      <path class="cls-7" d="M59.07,143.72c-.13-.08-.24-.2-.32-.35-.08-.15-.11-.33-.11-.54h0c0-.21.04-.39.11-.54.08-.15.18-.27.32-.35.14-.08.29-.12.47-.12s.34.04.47.12c.14.08.24.2.32.35.08.15.11.33.11.54h0c0,.21-.04.39-.11.54-.08.15-.18.27-.32.35-.13.08-.29.12-.47.12s-.34-.04-.47-.12ZM59.84,143.47c.08-.06.15-.14.2-.25.05-.11.07-.24.07-.39h0c0-.16-.02-.29-.07-.39s-.11-.19-.2-.25c-.09-.06-.19-.08-.3-.08s-.21.03-.3.08c-.09.06-.15.14-.2.25-.05.11-.07.24-.07.39h0c0,.16.02.29.07.39.05.11.11.19.2.25.08.06.19.08.3.08s.21-.03.3-.08Z"/>
      <path class="cls-7" d="M60.79,141.11h.33v2.7h-.33v-2.7Z"/>
      <path class="cls-7" d="M61.85,143.72c-.12-.08-.22-.2-.29-.35-.07-.15-.1-.33-.1-.53h0c0-.21.03-.38.1-.54s.17-.27.29-.35c.12-.08.27-.12.43-.12.14,0,.26.03.37.1.11.06.19.15.25.27h0v-1.08h.33v2.7h-.33v-.33h0c-.06.11-.14.2-.25.27s-.23.1-.37.1c-.17,0-.31-.04-.43-.12ZM62.64,143.47c.08-.06.15-.14.2-.25s.07-.24.07-.38h0c0-.15-.02-.27-.07-.38-.05-.11-.12-.19-.2-.25-.08-.06-.18-.09-.29-.09-.12,0-.21.03-.3.09-.08.06-.15.14-.19.25s-.07.24-.07.38h0c0,.15.02.28.07.39.04.11.11.19.19.25.08.06.18.09.3.09s.21-.03.29-.09Z"/>
      <path class="cls-7" d="M64.84,143.76c-.14-.06-.24-.15-.32-.27-.08-.12-.11-.25-.11-.4h0c0-.16.04-.3.13-.42.09-.12.22-.23.4-.33l.22-.12.19.2-.21.12c-.14.08-.24.16-.3.25-.06.08-.09.18-.09.28h0c0,.1.03.19.08.27.05.08.12.14.21.18.09.04.2.06.32.06.11,0,.21-.01.3-.04.09-.03.17-.07.24-.12.07-.05.13-.12.19-.2.07-.1.12-.23.16-.37.04-.14.05-.3.05-.48v-.08h.31v.08c0,.22-.03.43-.08.61-.06.18-.14.33-.24.46-.11.14-.25.24-.41.31s-.35.11-.55.11c-.18,0-.33-.03-.47-.1ZM65.07,142.32c-.08-.09-.15-.18-.21-.25s-.09-.14-.12-.21c-.03-.06-.04-.13-.04-.2h0c0-.12.03-.22.09-.31.06-.09.14-.16.24-.21.1-.05.22-.08.35-.08s.25.03.35.08c.1.05.18.12.24.21.06.09.09.19.09.31h0c0,.15-.05.27-.15.39-.1.11-.28.23-.53.36l-.18-.19c.21-.1.35-.2.43-.28.08-.08.12-.17.12-.27h0c0-.07-.02-.13-.05-.18-.03-.05-.07-.09-.13-.12-.05-.03-.12-.04-.19-.04s-.13.01-.19.04c-.06.03-.1.07-.13.12-.03.05-.05.11-.05.18h0c0,.05.01.11.04.16.02.05.06.11.11.17s.11.13.19.22l1.48,1.58h0s-.41.01-.41.01l-1.36-1.49Z"/>
      <path class="cls-7" d="M67.92,142.13h-.27v-.27h.27v-.24c0-.19.04-.33.13-.42s.22-.14.4-.14c.04,0,.07,0,.11,0,.04,0,.07,0,.09,0v.26s-.04,0-.07,0-.05,0-.07,0c-.09,0-.16.02-.2.07s-.07.12-.07.21v.24h.4v.27h-.4v1.68h-.33v-1.68Z"/>
      <path class="cls-7" d="M69,141.11h.33v2.7h-.33v-2.7Z"/>
      <path class="cls-7" d="M70.06,143.76c-.1-.06-.18-.14-.23-.25-.05-.11-.08-.24-.08-.38v-1.26h.33v1.21c0,.16.04.28.11.36.07.08.19.13.34.13.1,0,.19-.02.27-.07s.14-.11.18-.19c.04-.08.06-.18.06-.29v-1.15h.33v1.95h-.33v-.28h0c-.05.09-.13.17-.23.23-.1.06-.22.09-.37.09-.14,0-.26-.03-.36-.09Z"/>
      <path class="cls-7" d="M45.37,154.68h.25v.4h-.09l-.82,2.3h-.35l1.01-2.7ZM44.93,156.32h1.2l.11.29h-1.42l.11-.29ZM45.54,155.08v-.4h.16l1,2.7h-.35l-.81-2.3Z"/>
      <path class="cls-7" d="M47.26,157.34c-.11-.05-.2-.12-.26-.21-.06-.09-.1-.19-.12-.3v-.02s.32,0,.32,0v.02c.02.1.07.17.14.23.07.05.18.08.31.08.09,0,.16-.01.23-.03.06-.02.11-.06.14-.1.03-.04.05-.09.05-.15h0c0-.07-.02-.13-.06-.17s-.12-.08-.23-.1l-.31-.08c-.18-.04-.32-.11-.41-.2s-.14-.2-.14-.34h0c0-.11.03-.21.09-.3.06-.09.15-.15.25-.2.11-.05.23-.07.37-.07s.27.03.37.08c.11.05.19.12.25.21.06.09.09.18.1.29v.02s-.31,0-.31,0h0c-.01-.11-.05-.18-.12-.24-.07-.06-.17-.09-.29-.09-.08,0-.15.01-.2.04-.06.02-.1.06-.13.1s-.05.09-.05.15h0c0,.07.02.12.07.17.05.05.12.08.23.11l.31.08c.2.05.34.11.42.2s.12.19.12.33h0c0,.12-.03.22-.1.3-.07.09-.16.16-.27.21-.11.05-.24.07-.39.07-.15,0-.28-.02-.4-.07Z"/>
      <path class="cls-7" d="M48.98,157.29c-.09-.08-.13-.22-.13-.41v-1.18h-.29v-.27h.29v-.53h.34v.53h.37v.27h-.37v1.18c0,.1.02.17.07.21.04.04.11.05.2.05.02,0,.04,0,.06,0,.02,0,.03,0,.05,0v.26s-.05,0-.08,0c-.03,0-.06,0-.1,0-.18,0-.31-.04-.4-.13Z"/>
      <path class="cls-7" d="M49.92,154.68h.33v1.07h0c.05-.11.13-.2.23-.26.1-.06.23-.09.37-.09s.26.03.36.1c.1.07.19.16.24.28.06.12.09.26.09.41v1.19h-.33v-1.14c0-.18-.04-.31-.13-.41s-.2-.15-.36-.15c-.1,0-.19.02-.26.07s-.13.11-.18.2c-.04.08-.06.18-.06.29v1.14h-.33v-2.7Z"/>
      <path class="cls-7" d="M51.97,155.43h.33v.29h0c.04-.1.11-.17.21-.23.09-.06.2-.09.33-.09.09,0,.17.01.24.04.07.03.13.07.19.13.05.06.09.12.12.2h0c.04-.08.08-.15.14-.2s.13-.1.21-.13c.08-.03.17-.04.26-.04.13,0,.24.03.33.08.1.05.17.13.22.22.05.09.08.21.08.34v1.34h-.33v-1.27c0-.13-.04-.24-.11-.31-.07-.08-.17-.11-.3-.11-.09,0-.16.02-.23.06-.07.04-.12.09-.16.16-.04.07-.06.15-.06.24v1.24h-.33v-1.31c0-.12-.04-.21-.11-.28-.07-.07-.17-.11-.29-.11-.09,0-.16.02-.23.06-.07.04-.12.1-.16.17-.04.07-.06.15-.06.24v1.22h-.33v-1.95Z"/>
      <path class="cls-7" d="M55.28,157.34c-.1-.05-.17-.12-.23-.21-.05-.09-.08-.19-.08-.31h0c0-.17.06-.3.19-.4.12-.1.3-.16.52-.17l.72-.04v.25l-.68.04c-.13,0-.23.04-.3.09-.07.05-.11.13-.11.22h0c0,.1.04.17.11.23.07.06.16.08.28.08.1,0,.2-.02.28-.06.08-.04.15-.1.2-.18.05-.07.07-.16.07-.25v-.58c0-.12-.04-.21-.11-.28-.08-.07-.18-.1-.32-.1-.12,0-.23.03-.3.08-.08.05-.12.12-.14.21v.02h-.32v-.02c.01-.11.05-.2.11-.29.06-.09.15-.16.26-.21.11-.05.24-.08.4-.08s.29.03.4.08c.11.05.2.13.26.22.06.09.09.21.09.34v1.35h-.33v-.32h0c-.04.07-.09.13-.15.19-.06.05-.13.09-.21.12s-.16.04-.25.04c-.13,0-.24-.02-.34-.07Z"/>
    </g>
  </g>
  <g>
    <circle class="cls-12" cx="83.78" cy="35.37" r="15.45"/>
    <g>
      <circle class="cls-4" cx="76.71" cy="35.45" r="2.52"/>
      <circle class="cls-1" cx="87.51" cy="27.33" r="2.52"/>
      <line class="cls-9" x1="80.56" y1="32.28" x2="83.38" y2="30.02"/>
      <circle class="cls-1" cx="87.51" cy="43.26" r="2.52" transform="translate(-10.1 41.76) rotate(-25.43)"/>
      <line class="cls-9" x1="80.56" y1="38.31" x2="83.38" y2="40.58"/>
    </g>
  </g>
</svg>