<?xml version="1.0" encoding="UTF-8"?>
<svg id="Layer_1" data-name="Layer 1" xmlns="http://www.w3.org/2000/svg" version="1.1" viewBox="0 0 77.6 80.02">
  <defs>
    <style>
      .cls-1 {
        fill: #ff5d48;
        stroke-width: 0px;
      }

      .cls-2 {
        fill: #fff;
        stroke: #19425e;
        stroke-linecap: round;
        stroke-miterlimit: 10;
        stroke-width: 7.12px;
      }
    </style>
  </defs>
  <path class="cls-2" d="M67.6,52.43c-6.5,15.91-24.67,23.53-40.58,17.03C11.12,62.96,3.5,44.79,10,28.88c6.5-15.91,24.67-23.53,40.58-17.03,15.91,6.5,23.53,24.67,17.03,40.58Z"/>
  <path class="cls-1" d="M38.22,29.93c.4-.34.76-.69,1.16-1,5.65-4.46,14.1-1.21,15.31,5.89.41,2.4-.03,4.69-.97,6.91-.83,1.95-2.01,3.68-3.38,5.28-2.33,2.74-5.07,5.05-7.91,7.23-1.3.99-2.63,1.94-3.94,2.92-.17.13-.3.15-.49.02-2.89-2.03-5.72-4.13-8.34-6.51-2.13-1.94-4.08-4.02-5.61-6.47-1.16-1.85-1.96-3.84-2.3-6.01-.74-4.73,1.9-9.31,6.31-10.75,3.75-1.22,7.07-.42,9.94,2.29.07.07.15.14.22.21Z"/>
</svg>