<svg xmlns="http://www.w3.org/2000/svg" viewBox="0 0 69.17 22.85"><g id="Layer_2" data-name="Layer 2"><g id="Layer_1-2" data-name="Layer 1"><g id="_4D808x" data-name="4D808x"><path d="M69.17,19.81H48V16.29H69.17Z" fill="#fff"></path><path d="M69.17,9.31a6.56,6.56,0,0,1-6.63.17,4.64,4.64,0,0,1-2.46-4.73c.2-3.36,3.24-5,6-4.72a6.52,6.52,0,0,1,2.33.6c.2.1.29.19.22.45-.2.74-.36,1.49-.54,2.21a16.06,16.06,0,0,0-1.65-.44,2.74,2.74,0,0,0-2.53.68,2.47,2.47,0,0,0-.42,2.76A2.37,2.37,0,0,0,66,7.51c.19,0,.28-.1.27-.31s0-.41,0-.67h-1.1c0-.12,0-.19,0-.26V4.12a1.2,1.2,0,0,1,.24,0H68.9a1.28,1.28,0,0,1,.27,0Z" fill="#fff"></path><path d="M29.86,22.85a16.22,16.22,0,0,1-1.73-.44,3.48,3.48,0,0,1-2.35-3.47v-6H29v5.84A1.23,1.23,0,0,0,30.61,20a1.14,1.14,0,0,0,.92-1.18V12.92H34.7v.38c0,1.82,0,3.64,0,5.46A3.77,3.77,0,0,1,31.4,22.7c-.28.06-.56.1-.85.15Z" fill="#fff"></path><path d="M21.19,16.32v3.46H0V16.32Z" fill="#fff"></path><path d="M56.06,4.33v-4h3V10c-.6,0-1.2,0-1.8,0A.57.57,0,0,1,57,9.76c-1.42-1.56-2.83-3.13-4.24-4.69a.94.94,0,0,0-.14-.13v5h-3c0-.1,0-.2,0-.3q0-4.47,0-8.94c0-.34.08-.46.44-.44.68,0,1.36,0,2,0a.66.66,0,0,1,.54.23L56,4.27Z" fill="#fff"></path><path d="M13.45.27h3a.4.4,0,0,1,.25.21c.58,1.87,1.16,3.74,1.72,5.58,0-.09.05-.27.1-.43.36-1.25.73-2.51,1.11-3.76C19.8,1.41,20,1,20.11.5a.4.4,0,0,1,.24-.22c.94,0,1.88,0,2.87,0-.36,1.07-.7,2.1-1,3.13-.69,2.1-1.39,4.19-2.07,6.28-.07.21-.15.3-.38.29-.94,0-1.89,0-2.84,0a.4.4,0,0,1-.31-.2Q15,5.11,13.47.42A1.09,1.09,0,0,1,13.45.27Z" fill="#fff"></path><path d="M7,10V.29h5.87V2.84H10.15v1h2.17V6.44H10.15v.94h3.09V10Z" fill="#fff"></path><path d="M35.91,12.91l.19,0c1.45,0,2.91,0,4.36,0a3.07,3.07,0,0,1,3,2.24,3.13,3.13,0,0,1-2.93,4c-.5,0-1,0-1.54,0v3.37H35.91ZM39,16.82c.34,0,.64,0,.93,0a.67.67,0,0,0,.64-.65.65.65,0,0,0-.58-.73,6.52,6.52,0,0,0-1,0Z" fill="#fff"></path><path d="M29.71,2.87H27v.91h2.18V6.45H27v.93h3.09a1.12,1.12,0,0,1,.05.22V9.7c0,.15,0,.28-.2.28h-6l-.08,0V.3h5.86Z" fill="#fff"></path><path d="M0,.29H3.19V7.37h3V10H0Z" fill="#fff"></path><path d="M34.06,7.39h3V10H30.86V.3h3.2Z" fill="#fff"></path><path d="M37.86.29h3.19V7.38h3V10H37.86Z" fill="#fff"></path><path d="M45,10V.3h3.17V10Z" fill="#fff"></path></g></g></g></svg>