<svg xmlns="http://www.w3.org/2000/svg" viewBox="0 0 81.42 16.78"><g id="Layer_2" data-name="Layer 2"><g id="Layer_1-2" data-name="Layer 1"><g id="Q9nzDd"><path d="M0,16.63V0H2.27V.39c0,1.67,0,3.34,0,5A3.35,3.35,0,0,0,3.6,8.25a1.55,1.55,0,0,1,.21.23,2.28,2.28,0,0,0,.3.38c.6.44,1,1.05,1.61,1.5a.55.55,0,0,1,.15.19,4,4,0,0,0,1,1.18,1.24,1.24,0,0,1,.29.36A3.77,3.77,0,0,0,10,14.19a6.48,6.48,0,0,0,.76.06h4c-.11.22-.2.39-.3.56a3.43,3.43,0,0,1-2.18,1.63,5,5,0,0,1-1.1.13c-.77,0-1.54,0-2.32,0l-8.49,0Z" fill="#fff"></path><path d="M15.06,8.6H8.24C8.17,8.35,8.15.65,8.21,0l.26,0c1,0,2,0,2.95,0a3.7,3.7,0,0,1,3.65,3.16,1,1,0,0,1,0,.17v5C15.07,8.44,15.06,8.5,15.06,8.6Z" fill="#fff"></path><path d="M19.23,8.13V.83l.28,0c1,0,2,0,3,0a2.59,2.59,0,0,1,1.5.45,1.5,1.5,0,0,1,.5.56,3.36,3.36,0,0,1,.39,1.52c0,.8,0,1.61,0,2.42a2.82,2.82,0,0,1-.48,1.52A1.88,1.88,0,0,1,23.34,8a4.12,4.12,0,0,1-1.3.14Zm.94-.84.13,0c.81,0,1.62,0,2.43-.07a1,1,0,0,0,1-.77,5.38,5.38,0,0,0,.19-1.05c0-.63,0-1.26,0-1.9a2.63,2.63,0,0,0-.3-1.29.78.78,0,0,0-.3-.32,2.06,2.06,0,0,0-.75-.24c-.77,0-1.55,0-2.32,0,0,0,0,0-.08.05Z" fill="#fff"></path><path d="M47.27.49h.91c0,1.27,0,2.54,0,3.82V15.83c.43,0,.84,0,1.25,0H52v.83H47.27Z" fill="#fff"></path><path d="M28.07,8.79h.85c.12.53.53.68,1,.73a2.89,2.89,0,0,0,1.13-.11.9.9,0,0,0,.7-.94v-.8a6.52,6.52,0,0,1-1,.4,3.21,3.21,0,0,1-1.54,0A1.52,1.52,0,0,1,28.13,7,6.57,6.57,0,0,1,28,5a3.62,3.62,0,0,1,.22-1.17,1.39,1.39,0,0,1,.95-.92,3.38,3.38,0,0,1,1.48-.11,2.43,2.43,0,0,1,1.22.51l.05-.44h.81c0,.1,0,.19,0,.28,0,1.6,0,3.2,0,4.8a5.1,5.1,0,0,1-.07,1,1.52,1.52,0,0,1-1,1.11,3.41,3.41,0,0,1-1.52.22,3.16,3.16,0,0,1-1.29-.22A1.41,1.41,0,0,1,28.07,8.79Zm3.76-3.43c-.06-.37-.08-.64-.13-.89a1,1,0,0,0-.68-.8,2.49,2.49,0,0,0-1.43,0,.79.79,0,0,0-.57.56,4.18,4.18,0,0,0,0,2.5.81.81,0,0,0,.66.58,2.83,2.83,0,0,0,1.23,0,.92.92,0,0,0,.79-.77C31.77,6.08,31.79,5.66,31.83,5.36Z" fill="#fff"></path><path d="M67.22,11.92V9.15h.86v7.52h-.76l-.06-.44a4.17,4.17,0,0,1-.68.37A2.73,2.73,0,0,1,64,16.33a.92.92,0,0,1-.32-.39,3.46,3.46,0,0,1-.3-1.38c0-.51,0-1,.07-1.54a2.69,2.69,0,0,1,.14-.54A1.46,1.46,0,0,1,65,11.42a5.91,5.91,0,0,1,1,0,1.86,1.86,0,0,1,.91.33Zm-2.93,2.14a3.48,3.48,0,0,0,.16,1.23.77.77,0,0,0,.7.62,4.18,4.18,0,0,0,1,0c.7-.07.9-.45,1-1a4.52,4.52,0,0,0,0-1.68,1.06,1.06,0,0,0-.74-1,2.55,2.55,0,0,0-1.37,0,.77.77,0,0,0-.58.55A3.62,3.62,0,0,0,64.29,14.06Z" fill="#fff"></path><path d="M78.92,8.13H78c0-.13,0-.24,0-.36,0-.88,0-1.77,0-2.66,0-.29-.06-.59-.08-.89a.62.62,0,0,0-.54-.58,2.18,2.18,0,0,0-1.24,0,1,1,0,0,0-.73.76,5.63,5.63,0,0,0-.11,1.16c0,.76,0,1.52,0,2.28a2.29,2.29,0,0,1,0,.25,2.44,2.44,0,0,1-.85,0c-.07-.26-.09-7.09,0-7.66h.88V3.26l.27-.16A2.83,2.83,0,0,1,78,2.93a1.3,1.3,0,0,1,.84,1.27c0,.4,0,.81.06,1.21,0,.78,0,1.56,0,2.35Z" fill="#fff"></path><path d="M44.91,4.91a1.57,1.57,0,0,0-.18-1,.59.59,0,0,0-.35-.24,7.37,7.37,0,0,0-.93-.11,5.09,5.09,0,0,0-.55,0,.74.74,0,0,0-.76.63.37.37,0,0,1-.06.1h-.77A1.17,1.17,0,0,1,42,3a4,4,0,0,1,.9-.24,4.42,4.42,0,0,1,1.58,0,1.38,1.38,0,0,1,.27.08,1.24,1.24,0,0,1,.92,1,5.26,5.26,0,0,1,.12.78c0,1.06,0,2.13,0,3.19,0,.08,0,.15,0,.25a2.33,2.33,0,0,1-.79,0L45,7.7l-.25.16a2.18,2.18,0,0,1-1.07.34,6.73,6.73,0,0,1-1.1,0,1.55,1.55,0,0,1-1.45-1.6,1.9,1.9,0,0,1,.27-1,1.49,1.49,0,0,1,1.2-.6c.64,0,1.29,0,1.94-.06Zm-1,.73v0c-.39,0-.78,0-1.17.08a.69.69,0,0,0-.63.51,1.38,1.38,0,0,0-.05.5.73.73,0,0,0,.54.69,3,3,0,0,0,1.63,0A.74.74,0,0,0,44.69,7,2.59,2.59,0,0,0,45,5.91c0-.22,0-.26-.25-.27Z" fill="#fff"></path><path d="M64.56,4.91a1.44,1.44,0,0,0-.13-1,.63.63,0,0,0-.38-.27,8.56,8.56,0,0,0-1-.1c-.11,0-.23,0-.34,0-.56,0-.75.18-.92.74H61A1.23,1.23,0,0,1,61.72,3a3.4,3.4,0,0,1,.9-.23,4.25,4.25,0,0,1,1.55,0l.36.11a1.35,1.35,0,0,1,.92,1.37c0,1.24,0,2.49,0,3.73,0,0,0,0,0,.08h-.73l0-.39s0,0-.06,0a2.75,2.75,0,0,1-2.06.49,5.08,5.08,0,0,1-.78-.13,1.51,1.51,0,0,1-1-1.45c0-.17,0-.34,0-.51A1.35,1.35,0,0,1,62.21,5c.65-.05,1.29-.05,1.94-.07Zm0,.71c-.73,0-1.44,0-2.14.08a.8.8,0,0,0-.49.2.88.88,0,0,0-.23.95.78.78,0,0,0,.68.6,3.36,3.36,0,0,0,1.41-.07A1.08,1.08,0,0,0,64.32,7,1.91,1.91,0,0,0,64.56,5.62Z" fill="#fff"></path><path d="M59.71,5.78H56a1.19,1.19,0,0,0,.92,1.64,4,4,0,0,0,1,0,.89.89,0,0,0,.89-.78h.81a.87.87,0,0,1-.15.69,1.55,1.55,0,0,1-1.21.83,4.85,4.85,0,0,1-1.86,0,1.65,1.65,0,0,1-1.31-1.39,6.73,6.73,0,0,1,0-2.53A1.61,1.61,0,0,1,56.3,2.88a3.89,3.89,0,0,1,2.06,0A1.5,1.5,0,0,1,59.52,4,9.78,9.78,0,0,1,59.71,5.78ZM58.77,5a1.32,1.32,0,0,0-.09-.86.81.81,0,0,0-.69-.6,2.9,2.9,0,0,0-1.1,0A1.12,1.12,0,0,0,56,5Z" fill="#fff"></path><path d="M57.21,14.11c-.06.43-.1.92-.21,1.4a1.51,1.51,0,0,1-1.44,1.19,6.4,6.4,0,0,1-1.07.06,2.3,2.3,0,0,1-1.56-.55,1.29,1.29,0,0,1-.44-.72,7.22,7.22,0,0,1,0-2.74,1.52,1.52,0,0,1,1.24-1.26,4.1,4.1,0,0,1,2.25.06,1.51,1.51,0,0,1,1.1,1.29C57.12,13.24,57.16,13.64,57.21,14.11Zm-.93,0a4.06,4.06,0,0,0-.13-1.2.9.9,0,0,0-.76-.66,3,3,0,0,0-1.27,0,.88.88,0,0,0-.74.67,5,5,0,0,0,0,2.39.83.83,0,0,0,.69.63,2.93,2.93,0,0,0,1.38,0,.87.87,0,0,0,.69-.64A4,4,0,0,0,56.28,14.08Z" fill="#fff"></path><path d="M71.4,11.36c.29,0,.66.09,1,.16a1.62,1.62,0,0,1,.86.55,1.27,1.27,0,0,1,.32.63,6.69,6.69,0,0,1,0,2.71,1.59,1.59,0,0,1-1.48,1.29,6.34,6.34,0,0,1-1.07.06,2.21,2.21,0,0,1-1.63-.62,1.39,1.39,0,0,1-.39-.71,6.7,6.7,0,0,1,0-2.64,1.53,1.53,0,0,1,1.33-1.31A7.28,7.28,0,0,1,71.4,11.36Zm1.5,2.72c-.07-.4-.12-.79-.2-1.19a.88.88,0,0,0-.78-.68,3.23,3.23,0,0,0-1.2,0,.92.92,0,0,0-.8.68,4.58,4.58,0,0,0,0,2.41.83.83,0,0,0,.65.6,2.92,2.92,0,0,0,1.44,0,.81.81,0,0,0,.67-.62C72.77,14.88,72.83,14.49,72.9,14.08Z" fill="#fff"></path><path d="M69.71,3.58h-.82V2.84h.84v-2h.93v2H73v.75H70.69c0,.14,0,.24,0,.34V6.64c0,.56.24.8.79.83h.18c.65,0,.88-.18,1.05-.82h.78A1.45,1.45,0,0,1,72.07,8.2a6.76,6.76,0,0,1-.9,0,1.5,1.5,0,0,1-1.44-1.58c0-.91,0-1.82,0-2.73C69.74,3.8,69.72,3.71,69.71,3.58Z" fill="#fff"></path><path d="M58.94,16.68h-.85V11.5h.76l0,.36a6.38,6.38,0,0,1,.94-.41,3.14,3.14,0,0,1,1.58,0,1.19,1.19,0,0,1,1,1c0,.3.1.59.1.89,0,1,0,2,0,3,0,.09,0,.18,0,.3h-.86v-.35c0-.84,0-1.68,0-2.53,0-.32,0-.64-.07-1a.63.63,0,0,0-.51-.58,2.16,2.16,0,0,0-1.33,0,.87.87,0,0,0-.63.71c0,.32-.11.64-.12,1,0,.78,0,1.56,0,2.35Z" fill="#fff"></path><path d="M36.7,3.58h-.88V2.84h.86v-2h.9v2H40v.74l-2.35,0a2.08,2.08,0,0,0,0,.3c0,.91,0,1.82,0,2.73a.76.76,0,0,0,.85.86h.24a.83.83,0,0,0,.91-.69,1.12,1.12,0,0,1,.05-.13h.75A1.4,1.4,0,0,1,39.67,8a2.42,2.42,0,0,1-1.24.21,2.45,2.45,0,0,1-.81-.13,1.41,1.41,0,0,1-.92-1.37V3.58Z" fill="#fff"></path><path d="M79,16.68h-.83a1.47,1.47,0,0,1,0-.27c0-.88,0-1.75,0-2.63,0-.33-.06-.66-.09-1a.61.61,0,0,0-.51-.54,2.34,2.34,0,0,0-1.26,0,.93.93,0,0,0-.7.78c0,.41-.1.82-.11,1.23,0,.7,0,1.4,0,2.11,0,.09,0,.17,0,.28h-.8c-.07-.25-.09-4.76,0-5.19l.16,0h.57l0,.45.21-.14a2.28,2.28,0,0,1,1.54-.39,2.16,2.16,0,0,1,1.31.35,1,1,0,0,1,.41.58,6.32,6.32,0,0,1,.16,1.5c0,.82,0,1.64,0,2.45Z" fill="#fff"></path><path d="M52.78,4V.49h.85c.09.25.1,7.26,0,7.63h-.86V4.81c-1.18,0-2.3,0-3.45,0a2.65,2.65,0,0,1,0-.8h3.47Z" fill="#fff"></path><path d="M67.79,8.13H67c-.08-.27-.1-7.1,0-7.63h.81C67.84.73,67.86,7.64,67.79,8.13Z" fill="#fff"></path><path d="M4.36,8.43A2.17,2.17,0,0,1,4,8.09,2.72,2.72,0,0,1,3.6,6.65V0h.68V7.34C4.28,7.67,4.33,8,4.36,8.43Z" fill="#fff"></path><path d="M4.88,0h.54V8.58H5.08a2,2,0,0,1-.21-1c0-2.49,0-5,0-7.47C4.86.1,4.87.08,4.88,0Z" fill="#fff"></path><path d="M3.35,7.6A2.51,2.51,0,0,1,2.56,6c0-1.93,0-3.86,0-5.8a1.25,1.25,0,0,1,0-.15h.64V5.75A6.76,6.76,0,0,0,3.35,7.6Z" fill="#fff"></path><path d="M34.08,2.85h.83V8.12H34.1l0,0,0,0a2,2,0,0,1,0-.24C34,6.21,34,4.58,34,3A.37.37,0,0,1,34.08,2.85Z" fill="#fff"></path><path d="M25.91,2.85h.79c.07.24.09,4.86,0,5.27h-.78C25.86,7.88,25.84,3.3,25.91,2.85Z" fill="#fff"></path><path d="M15.06,8.94v.51c-.24.08-6.49.12-6.85,0a2.11,2.11,0,0,1,0-.26c0-.09,0-.18,0-.29Z" fill="#fff"></path><path d="M6.82,8.6H6.39V0L6.6,0h.22Z" fill="#fff"></path><path d="M15.06,10v.35a2.74,2.74,0,0,1-.94.07H8.34l-.13,0V10Z" fill="#fff"></path><path d="M8.27,11.07h6.79v.36l-.27,0-5.62,0-.48,0C8.39,11.47,8.3,11.4,8.27,11.07Z" fill="#fff"></path><path d="M15.06,12.48v.39l-.31,0h-4a2.45,2.45,0,0,1-1.52-.42Z" fill="#fff"></path><path d="M80.17,6.78c.36,0,.69,0,1,0,.15,0,.22.1.22.25s0,.53,0,.79c0,.08-.06.21-.12.22a1.94,1.94,0,0,1-1.12,0Z" fill="#fff"></path><path d="M34.45.74c.38,0,.55.15.55.5s-.17.52-.53.52-.52-.16-.54-.52S34.11.75,34.45.74Z" fill="#fff"></path><path d="M26.3.74c.37,0,.54.15.54.5a.45.45,0,0,1-.51.52c-.36,0-.53-.16-.53-.52S25.94.75,26.3.74Z" fill="#fff"></path></g></g></g></svg>