<svg xmlns="http://www.w3.org/2000/svg" viewBox="0 0 56.82 23.5"><defs><style>.cls-1{fill:#fff;}.cls-2{fill:#99d7ff;}</style></defs><g id="Layer_2" data-name="Layer 2"><g id="Layer_1-2" data-name="Layer 1"><g id="_67K9mX" data-name="67K9mX"><path class="cls-1" d="M30.68,11.77a5.61,5.61,0,1,1-5.5-5.62A5.59,5.59,0,0,1,30.68,11.77ZM27.08,15a3.81,3.81,0,1,1-2.32-7,4,4,0,0,1,1.69.15,2.93,2.93,0,0,1,2.06,3.06A2.12,2.12,0,0,1,28,12.66a.62.62,0,0,1-.7.19c-.26-.14-.25-.39-.22-.64,0,0,0-.08,0-.12l.33-1.57c.08-.43.17-.85.26-1.3H26.8c-.5,0-.5,0-.59.5l0,0a1.8,1.8,0,0,0-2.25-.55,2.94,2.94,0,0,0-1.78,3.16,1.74,1.74,0,0,0,2.18,1.5A2.22,2.22,0,0,0,25.56,13a1.15,1.15,0,0,0,1.49.85,2.84,2.84,0,0,0,.95-.44,2.8,2.8,0,0,0,1-2.15,3.51,3.51,0,0,0-2-3.54,4.5,4.5,0,0,0-2.59-.28,4.34,4.34,0,0,0-3.57,4.8A4.25,4.25,0,0,0,25.65,16a3.76,3.76,0,0,0,1.66-.61Z"></path><path class="cls-1" d="M15,11l.69-2.53h2.08l-.81,2.42c-.21.61-.41,1.23-.62,1.84l-.61,1.78H13.73l-.58-1.95-.46-1.7-.08,0-.47,1.65-.57,2H9.72c-.06,0-.14-.11-.17-.18l-.69-2-.33-1-1-2.85H9.65l.75,2.76.29,1.19h.06l.34-1.2.85-2.76c.43,0,.88,0,1.32,0,.06,0,.13.11.15.19.25.79.49,1.57.73,2.36l.41,1.4h0Z"></path><path class="cls-1" d="M39.48,12.55a1.9,1.9,0,0,1-1.62,1.88,5.44,5.44,0,0,1-4.19-.53c-.12-.07-.24-.16-.37-.25l.69-.89.29-.3.53.3a3.33,3.33,0,0,0,2.14.43A1.34,1.34,0,0,0,37.4,13c.16-.1.25-.24.11-.43a4.83,4.83,0,0,0-.58-.25c-.52-.12-1.06-.19-1.59-.32a2.24,2.24,0,0,1-1.71-1.17,1.71,1.71,0,0,1,.9-2.09,3.84,3.84,0,0,1,2-.41A5,5,0,0,1,39.05,9l.25.17-1,1.18a3.59,3.59,0,0,0-1.6-.6,3.53,3.53,0,0,0-.92,0,.48.48,0,0,0-.31.31c0,.08.15.26.27.3.43.12.87.19,1.31.29l1.29.36c.2.12.41.23.59.36A1.56,1.56,0,0,1,39.48,12.55Z"></path><path class="cls-1" d="M42.59,11.21V8.46h.26c1.13,0,2.27,0,3.41,0a3.83,3.83,0,0,1,1.3.28,1.87,1.87,0,0,1,.85,2.68,2.2,2.2,0,0,1-.91.8,3.69,3.69,0,0,1-1.51.25H44.46v2H42.59V11.21Zm1.88-.11c.52,0,1,0,1.54,0a1.16,1.16,0,0,0,.53-.18.51.51,0,0,0,.12-.78.81.81,0,0,0-.48-.27c-.56,0-1.13,0-1.71,0Z"></path><path class="cls-2" d="M18.28,0l1.8,2.2c.93,1.14,1.85,2.29,2.78,3.44l.08.12-2,1.16a.92.92,0,0,0-.07-.13C20,4.65,19.19,2.48,18.36.32c0-.1-.05-.2-.08-.3Z"></path><path class="cls-2" d="M29.23,7l-2-1.18L31.82.08l.06,0Z"></path><path class="cls-2" d="M31.85,23.43c-.36-.43-.72-.85-1.07-1.29Q29,20,27.29,17.84l-.07-.11,2-1.18c.26.66.53,1.37.8,2.07l1.77,4.55c0,.08,0,.17.07.25Z"></path><path class="cls-2" d="M18.29,23.35l2.64-6.8,2,1.18L18.37,23.4Z"></path><path class="cls-2" d="M34.81,12.76l-.53-.3-.29.3-2.67.12v-2h2.31A2.24,2.24,0,0,0,35.34,12c.53.13,1.07.2,1.59.32a4.83,4.83,0,0,1,.58.25,1.17,1.17,0,0,1-.26,0L35,12.72A.85.85,0,0,0,34.81,12.76Z"></path><path class="cls-2" d="M8.53,11.31l.33,1-2.45-.11-2.29-.13-4-.22-.09,0v-.07Z"></path><path class="cls-2" d="M42.59,11.21v1.23l-3.11.11a1.56,1.56,0,0,0-.56-1.12c-.18-.13-.39-.24-.59-.36l2.38.08Z"></path><path class="cls-2" d="M16.29,12.72c.21-.61.41-1.23.62-1.84l1.93-.11v2.11Z"></path><path class="cls-2" d="M47.5,12.22a2.2,2.2,0,0,0,.91-.8l1.89.1,5.73.22.62,0a.24.24,0,0,1,.17.1L55,11.94l-5.34.2Z"></path><path class="cls-2" d="M12.14,12.52l.47-1.65.08,0,.46,1.7Z"></path><path class="cls-2" d="M15,11l-.35,1.42h0L14.14,11Z"></path><path class="cls-2" d="M11.09,11.21l-.34,1.2h-.06l-.29-1.19Z"></path><path class="cls-2" d="M31.87,23.42l0,.06,0,0,0-.07Z"></path><path class="cls-2" d="M18.28,0l0,0h0V0Z"></path><path class="cls-1" d="M23.48,11.83a1.63,1.63,0,0,1,1.75-1.67,1.35,1.35,0,0,1,.49.22.52.52,0,0,1,.22.63,5.45,5.45,0,0,0-.18.8,1.41,1.41,0,0,1-1.5,1A1,1,0,0,1,23.48,11.83Z"></path></g></g></g></svg>