<svg width="595" height="393" viewBox="0 0 595 393" fill="none" xmlns="http://www.w3.org/2000/svg">
<g clip-path="url(#clip0_126_9)">
<path d="M92.5088 297.483V93.6599H134.558L183.756 238.069C188.382 251.685 191.535 261.587 193.638 268.395C195.95 260.969 199.735 250.035 204.781 235.594L254.399 93.8662H291.403V297.69H264.281V126.874L203.94 297.483H179.131L119 123.78V297.277L92.5088 297.483Z" fill="#004464"/>
<path d="M335.134 297.484V93.6599H406.829C419.234 93.2801 431.644 94.2487 443.832 96.5481C454.982 98.9581 465.37 103.984 474.108 111.195C485.322 120.379 493.817 132.348 498.707 145.854C504.405 161.394 507.183 177.82 506.906 194.334C507.086 208.272 505.245 222.164 501.44 235.594C498.386 246.205 493.554 256.245 487.143 265.301C482.117 272.504 475.772 278.73 468.431 283.661C460.852 288.52 452.451 292.013 443.622 293.976C432.654 296.409 421.436 297.586 410.193 297.484H335.134ZM362.677 273.346H407.039C417.891 273.698 428.734 272.446 439.207 269.633C446.202 267.622 452.613 264.017 457.919 259.112C464.961 251.804 470.147 242.969 473.057 233.324C477.031 220.565 478.877 207.259 478.523 193.921C479.583 176.769 475.877 159.656 467.8 144.409C461.903 134.198 452.632 126.266 441.519 121.923C430.015 118.496 417.997 117.03 405.988 117.591H362.677V273.346Z" fill="#004464"/>
<path d="M595 393H0V0H595V393ZM21.0247 373.402H576.078V20.6299H21.0247V373.402Z" fill="#004464"/>
</g>
<defs>
<clipPath id="clip0_126_9">
<rect width="595" height="393" fill="white"/>
</clipPath>
</defs>
</svg>
