<svg width="607" height="520" viewBox="0 0 607 520" fill="none" xmlns="http://www.w3.org/2000/svg">
<g clip-path="url(#clip0_126_15)">
<path d="M215.641 135.652C214.935 135.771 214.211 135.731 213.523 135.535C212.835 135.34 212.201 134.994 211.67 134.524C211.138 134.053 210.723 133.471 210.456 132.821C210.188 132.171 210.075 131.47 210.125 130.771V119.466C210.125 118.24 210.623 117.064 211.51 116.196C212.397 115.329 213.599 114.842 214.853 114.842C215.496 114.807 216.139 114.901 216.743 115.117C217.347 115.334 217.9 115.669 218.367 116.102C218.835 116.535 219.207 117.057 219.46 117.635C219.714 118.214 219.845 118.837 219.844 119.466V130.771C219.882 131.422 219.779 132.073 219.541 132.682C219.304 133.291 218.938 133.844 218.467 134.305C217.995 134.766 217.43 135.125 216.807 135.357C216.184 135.589 215.519 135.689 214.853 135.652" fill="#004464"/>
<path d="M262.657 135.652C263.301 135.653 263.938 135.526 264.529 135.277C265.12 135.029 265.654 134.665 266.096 134.208C266.539 133.751 266.882 133.211 267.103 132.619C267.325 132.028 267.42 131.399 267.385 130.771V119.466C267.385 118.24 266.887 117.064 266 116.196C265.113 115.329 263.911 114.842 262.657 114.842C262.014 114.807 261.371 114.901 260.767 115.117C260.163 115.334 259.61 115.669 259.143 116.102C258.675 116.535 258.304 117.057 258.05 117.635C257.796 118.214 257.665 118.837 257.666 119.466V130.771C257.628 131.422 257.731 132.073 257.969 132.682C258.206 133.291 258.572 133.844 259.043 134.305C259.515 134.766 260.08 135.125 260.703 135.357C261.326 135.589 261.992 135.689 262.657 135.652Z" fill="#004464"/>
<path d="M243.22 172.134C243.443 172.68 243.526 173.271 243.462 173.855C243.397 174.44 243.187 175 242.85 175.486C242.513 175.973 242.06 176.371 241.529 176.647C240.998 176.922 240.406 177.066 239.806 177.066C239.205 177.066 238.613 176.922 238.082 176.647C237.552 176.371 237.098 175.973 236.761 175.486C236.424 175 236.214 174.44 236.15 173.855C236.085 173.271 236.168 172.68 236.391 172.134C236.391 171.18 236.778 170.266 237.468 169.591C238.158 168.916 239.093 168.538 240.068 168.538C241.044 168.538 241.979 168.916 242.668 169.591C243.358 170.266 243.745 171.18 243.745 172.134" fill="#004464"/>
<path d="M477.773 25.6917H127.651C121.382 25.6917 115.369 28.1278 110.936 32.4641C106.503 36.8005 104.012 42.6818 104.012 48.8142V260.514C103.977 263.572 104.563 266.606 105.736 269.441C106.908 272.276 108.644 274.856 110.842 277.03C113.041 279.205 115.659 280.931 118.544 282.109C121.429 283.287 124.525 283.893 127.651 283.893H477.773C480.899 283.893 483.995 283.287 486.88 282.109C489.766 280.931 492.383 279.205 494.582 277.03C496.78 274.856 498.516 272.276 499.689 269.441C500.861 266.606 501.447 263.572 501.412 260.514V49.8419C501.412 43.7094 498.921 37.8281 494.488 33.4918C490.055 29.1555 484.042 26.7194 477.773 26.7194M369.033 87.3518C373.471 87.301 377.823 88.545 381.534 90.9249C385.246 93.3048 388.148 96.7127 389.87 100.713C391.592 104.714 392.057 109.126 391.204 113.386C390.351 117.646 388.219 121.561 385.081 124.63C381.943 127.699 377.941 129.785 373.586 130.619C369.23 131.453 364.72 130.999 360.63 129.315C356.54 127.63 353.056 124.791 350.623 121.161C348.19 117.531 346.918 113.273 346.97 108.933C347.038 103.23 349.384 97.7793 353.507 93.7465C357.63 89.7136 363.203 87.4185 369.033 87.3518ZM239.28 57.0356C242.835 56.9848 246.324 57.9726 249.301 59.8726C252.278 61.7726 254.608 64.4983 255.992 67.7008C257.376 70.9034 257.752 74.4371 257.071 77.8498C256.391 81.2625 254.684 84.3989 252.171 86.8575C249.657 89.3161 246.451 90.9852 242.962 91.6511C239.473 92.317 235.86 91.9494 232.586 90.5953C229.312 89.2413 226.525 86.9625 224.583 84.0505C222.64 81.1384 221.631 77.7257 221.682 74.249C221.682 69.6837 223.537 65.3054 226.837 62.0773C230.137 58.8491 234.613 57.0356 239.28 57.0356ZM273.689 172.905C272.493 172.9 271.312 172.645 270.225 172.158C269.138 171.67 268.17 170.962 267.385 170.079C266.615 169.842 265.79 169.842 265.021 170.079C264.115 170.079 263.247 170.431 262.606 171.057C261.966 171.684 261.606 172.533 261.606 173.419V246.64C261.607 249.663 260.398 252.565 258.238 254.726C256.078 256.887 253.138 258.134 250.049 258.202C247.849 258.249 245.682 257.666 243.816 256.525C241.949 255.384 240.464 253.734 239.543 251.779C238.527 253.716 236.984 255.34 235.084 256.474C233.183 257.607 231 258.205 228.774 258.202C225.685 258.134 222.746 256.887 220.586 254.726C218.426 252.565 217.217 249.663 217.217 246.64V172.391C217.217 171.506 216.858 170.656 216.217 170.03C215.577 169.403 214.708 169.051 213.803 169.051C213.033 168.815 212.208 168.815 211.439 169.051C210.654 169.934 209.686 170.643 208.599 171.13C207.512 171.617 206.331 171.872 205.135 171.877C204.009 171.912 202.888 171.725 201.838 171.327C200.788 170.929 199.83 170.329 199.021 169.562C198.213 168.795 197.57 167.877 197.131 166.863C196.693 165.848 196.467 164.758 196.467 163.656V110.217C196.433 108.104 196.828 106.005 197.631 104.043C198.434 102.08 199.628 100.294 201.143 98.7876C202.659 97.2811 204.466 96.0848 206.459 95.2682C208.452 94.4517 210.591 94.0314 212.752 94.0316H265.284C267.444 94.0314 269.584 94.4517 271.577 95.2682C273.57 96.0848 275.377 97.2811 276.892 98.7876C278.408 100.294 279.602 102.08 280.405 104.043C281.208 106.005 281.603 108.104 281.568 110.217V164.684C281.569 165.785 281.343 166.876 280.904 167.89C280.466 168.905 279.823 169.823 279.014 170.59C278.206 171.357 277.248 171.957 276.198 172.355C275.147 172.752 274.026 172.94 272.901 172.905M412.634 221.206H331.473V207.589H344.343C345.412 207.589 346.471 207.383 347.459 206.983C348.447 206.582 349.345 205.996 350.101 205.256C350.857 204.517 351.457 203.639 351.866 202.672C352.275 201.706 352.486 200.67 352.486 199.625V157.747C352.19 156.685 351.536 155.752 350.63 155.099C349.725 154.446 348.62 154.112 347.495 154.15H331.473V141.304H392.409V199.625C392.374 200.658 392.552 201.688 392.932 202.653C393.312 203.618 393.887 204.498 394.622 205.241C395.358 205.985 396.238 206.575 397.212 206.979C398.185 207.382 399.232 207.59 400.289 207.589H413.422L412.634 221.206Z" fill="#004464"/>
<path d="M604.111 447.806L537.396 313.953C539.115 312.365 540.49 310.455 541.437 308.336C542.385 306.217 542.886 303.933 542.912 301.621V17.4704C542.846 12.9011 540.979 8.53313 537.7 5.27799C534.421 2.02286 529.984 0.132003 525.314 0L81.9489 0C77.2331 0.0663809 72.7295 1.92831 69.3946 5.19036C66.0597 8.45241 64.1561 12.8576 64.0883 17.4704V301.621C64.1271 303.993 64.6594 306.332 65.6529 308.497C66.6464 310.661 68.0801 312.605 69.8667 314.209L3.41454 447.806C1.20448 452.388 0.0393841 457.385 2.2193e-08 462.451L2.2193e-08 490.711C-0.000303771 498.435 3.1183 505.846 8.677 511.331C14.2357 516.817 21.7845 519.932 29.6802 520H577.845C585.741 519.932 593.29 516.817 598.848 511.331C604.407 505.846 607.526 498.435 607.525 490.711V462.451C607.486 457.385 606.321 452.388 604.111 447.806ZM85.6261 26.9763C85.6951 22.3875 87.6073 18.0096 90.9494 14.7886C94.2914 11.5677 98.795 9.76235 103.487 9.76285H502.2C504.533 9.72878 506.85 10.1489 509.015 10.9987C511.181 11.8485 513.152 13.111 514.814 14.7128C516.476 16.3146 517.796 18.2237 518.696 20.3291C519.597 22.4345 520.061 24.694 520.061 26.9763V286.719C520.061 289.002 519.597 291.261 518.696 293.367C517.796 295.472 516.476 297.381 514.814 298.983C513.152 300.585 511.181 301.847 509.015 302.697C506.85 303.547 504.533 303.967 502.2 303.933H103.487C98.795 303.933 94.2914 302.128 90.9494 298.907C87.6073 295.686 85.6951 291.308 85.6261 286.719V26.9763ZM565.238 477.095H39.9238C34.9083 477.095 30.0981 475.146 26.5515 471.677C23.005 468.208 21.0125 463.503 21.0125 458.597C21.0315 455.761 21.6578 452.96 22.8511 450.376L78.7971 337.846C81.5165 332.256 85.7941 327.53 91.1376 324.212C96.481 320.894 102.673 319.119 109.003 319.091H496.947C503.283 319.088 509.488 320.851 514.838 324.172C520.187 327.494 524.458 332.237 527.152 337.846L582.31 450.376C583.62 452.921 584.252 455.749 584.149 458.597C584.149 463.503 582.156 468.208 578.61 471.677C575.063 475.146 570.253 477.095 565.238 477.095Z" fill="#004464"/>
<path d="M371.922 455.514C376.405 455.514 380.708 453.79 383.902 450.714C387.097 447.637 388.926 443.455 388.995 439.071C389.415 437.21 389.415 435.281 388.995 433.419L378.226 402.332C377.039 399.104 374.864 396.311 371.997 394.335C369.131 392.358 365.711 391.293 362.204 391.285H245.059C241.552 391.293 238.132 392.358 235.265 394.335C232.399 396.311 230.224 399.104 229.037 402.332L218.268 433.419C217.972 435.292 217.972 437.198 218.268 439.071C218.337 443.455 220.166 447.637 223.36 450.714C226.555 453.79 230.858 455.514 235.341 455.514H371.922Z" fill="#004464"/>
</g>
<defs>
<clipPath id="clip0_126_15">
<rect width="607" height="520" fill="white"/>
</clipPath>
</defs>
</svg>
