<svg width="595" height="662" viewBox="0 0 595 662" fill="none" xmlns="http://www.w3.org/2000/svg">
<path d="M424.168 0V286.225L360.752 182.89L297.052 286.225L233.635 182.89L170.218 286.225L106.801 182.89L23 319.066V507.618H571.386V0H424.168Z" fill="#004464"/>
<path d="M5.625 580.756L24.4043 544.164V544.018H2.08008V538.481H30.9082V544.194L12.5098 580.756H5.625ZM47.373 580.756V545.014H47.2266L36.1816 552.631V546.391L47.3145 538.481H53.8184V580.756H47.373ZM64.3945 566.489V560.717H83.2324V566.489H64.3945ZM92.4609 580.756L111.24 544.164V544.018H88.916V538.481H117.744V544.194L99.3457 580.756H92.4609ZM138.662 581.459C135.83 581.459 133.32 580.932 131.133 579.877C128.965 578.823 127.227 577.387 125.918 575.571C124.629 573.735 123.887 571.664 123.691 569.36L123.662 569.008H129.932L129.961 569.213C130.156 570.483 130.645 571.635 131.426 572.67C132.227 573.686 133.252 574.496 134.502 575.102C135.752 575.688 137.148 575.981 138.691 575.981C140.469 575.981 142.041 575.6 143.408 574.838C144.775 574.077 145.84 573.022 146.602 571.674C147.363 570.327 147.744 568.784 147.744 567.045V566.987C147.744 565.268 147.354 563.745 146.572 562.416C145.811 561.088 144.756 560.043 143.408 559.282C142.061 558.52 140.518 558.139 138.779 558.139C137.471 558.139 136.26 558.334 135.146 558.725C134.033 559.096 133.047 559.662 132.188 560.424C131.816 560.756 131.455 561.127 131.104 561.537C130.771 561.948 130.469 562.387 130.195 562.856H124.424L126.504 538.481H151.729V544.018H131.836L130.547 557.407H130.693C131.65 555.981 132.959 554.887 134.619 554.125C136.299 553.344 138.184 552.953 140.273 552.953C142.969 552.953 145.361 553.559 147.451 554.77C149.541 555.961 151.182 557.602 152.373 559.692C153.584 561.782 154.189 564.174 154.189 566.87V566.928C154.189 569.78 153.525 572.299 152.197 574.487C150.869 576.674 149.033 578.383 146.689 579.614C144.365 580.844 141.689 581.459 138.662 581.459ZM186.65 581.459C183.486 581.459 180.713 580.981 178.33 580.024C175.967 579.067 174.092 577.7 172.705 575.922C171.318 574.125 170.537 571.987 170.361 569.506L170.332 569.067H176.748L176.807 569.448C177.002 570.737 177.539 571.86 178.418 572.817C179.316 573.754 180.488 574.477 181.934 574.985C183.379 575.493 185.039 575.746 186.914 575.746C188.809 575.746 190.439 575.483 191.807 574.955C193.174 574.428 194.229 573.676 194.971 572.7C195.732 571.723 196.113 570.58 196.113 569.272V569.243C196.113 567.543 195.498 566.196 194.268 565.2C193.057 564.184 191.045 563.373 188.232 562.768L183.633 561.801C179.492 560.922 176.406 559.516 174.375 557.582C172.344 555.629 171.328 553.09 171.328 549.965V549.936C171.348 547.534 172.012 545.424 173.32 543.608C174.629 541.772 176.436 540.346 178.74 539.33C181.045 538.295 183.691 537.778 186.68 537.778C189.609 537.778 192.197 538.276 194.443 539.272C196.689 540.268 198.467 541.664 199.775 543.461C201.084 545.239 201.816 547.319 201.973 549.702L202.002 550.17H195.586L195.527 549.789C195.352 548.461 194.863 547.328 194.062 546.391C193.281 545.453 192.256 544.741 190.986 544.252C189.717 543.745 188.242 543.491 186.562 543.491C184.824 543.491 183.311 543.754 182.021 544.282C180.732 544.789 179.736 545.502 179.033 546.42C178.33 547.338 177.979 548.422 177.979 549.672V549.702C177.979 551.284 178.604 552.573 179.854 553.569C181.104 554.565 183.047 555.346 185.684 555.912L190.283 556.909C194.658 557.827 197.832 559.233 199.805 561.127C201.797 563.002 202.793 565.571 202.793 568.832V568.862C202.793 571.44 202.139 573.676 200.83 575.571C199.541 577.446 197.686 578.901 195.264 579.936C192.861 580.952 189.99 581.459 186.65 581.459ZM208.154 580.756V538.481H214.512V555.004H214.658C215.459 553.207 216.67 551.821 218.291 550.844C219.932 549.848 221.904 549.35 224.209 549.35C226.416 549.35 228.33 549.868 229.951 550.903C231.592 551.918 232.861 553.354 233.76 555.209C234.678 557.065 235.137 559.233 235.137 561.713V580.756H228.779V562.914C228.779 560.356 228.164 558.364 226.934 556.938C225.703 555.512 223.975 554.799 221.748 554.799C220.303 554.799 219.033 555.141 217.939 555.825C216.865 556.508 216.025 557.455 215.42 558.666C214.814 559.877 214.512 561.293 214.512 562.914V580.756H208.154ZM254.414 581.371C251.406 581.371 248.809 580.727 246.621 579.438C244.453 578.129 242.783 576.284 241.611 573.901C240.459 571.498 239.883 568.676 239.883 565.434V565.405C239.883 562.202 240.469 559.399 241.641 556.996C242.812 554.575 244.463 552.7 246.592 551.371C248.721 550.024 251.221 549.35 254.092 549.35C256.982 549.35 259.463 549.995 261.533 551.284C263.623 552.553 265.234 554.36 266.367 556.703C267.5 559.028 268.066 561.733 268.066 564.819V566.957H243.018V562.475H264.99L261.855 566.664V564.203C261.855 562.036 261.523 560.239 260.859 558.813C260.215 557.368 259.307 556.293 258.135 555.59C256.982 554.887 255.645 554.536 254.121 554.536C252.617 554.536 251.27 554.907 250.078 555.649C248.887 556.391 247.949 557.485 247.266 558.93C246.582 560.356 246.24 562.114 246.24 564.203V566.664C246.24 568.657 246.572 570.366 247.236 571.791C247.92 573.198 248.887 574.282 250.137 575.043C251.387 575.786 252.861 576.157 254.561 576.157C255.811 576.157 256.914 575.971 257.871 575.6C258.828 575.209 259.619 574.702 260.244 574.077C260.889 573.432 261.338 572.719 261.592 571.938L261.68 571.703H267.715L267.656 572.026C267.402 573.237 266.924 574.399 266.221 575.512C265.518 576.625 264.6 577.631 263.467 578.53C262.354 579.409 261.035 580.102 259.512 580.61C257.988 581.118 256.289 581.371 254.414 581.371ZM273.193 580.756V538.481H279.551V580.756H273.193ZM296.924 581.371C293.877 581.371 291.602 580.688 290.098 579.321C288.613 577.934 287.871 575.698 287.871 572.612V554.975H283.447V549.936H287.871V541.909H294.375V549.936H300.146V554.975H294.375V572.26C294.375 573.823 294.717 574.897 295.4 575.483C296.084 576.049 297.1 576.332 298.447 576.332C298.779 576.332 299.082 576.323 299.355 576.303C299.648 576.264 299.912 576.235 300.146 576.215V581.108C299.775 581.166 299.307 581.225 298.74 581.284C298.174 581.342 297.568 581.371 296.924 581.371ZM317.93 581.371C314.98 581.371 312.402 580.727 310.195 579.438C308.008 578.129 306.309 576.284 305.098 573.901C303.887 571.498 303.281 568.647 303.281 565.346V565.287C303.281 562.006 303.887 559.174 305.098 556.791C306.328 554.409 308.037 552.573 310.225 551.284C312.432 549.995 314.99 549.35 317.9 549.35C320.83 549.35 323.389 549.995 325.576 551.284C327.783 552.553 329.492 554.379 330.703 556.762C331.934 559.145 332.549 561.987 332.549 565.287V565.346C332.549 568.666 331.934 571.518 330.703 573.901C329.492 576.284 327.793 578.129 325.605 579.438C323.418 580.727 320.859 581.371 317.93 581.371ZM317.959 576.039C319.6 576.039 321.025 575.62 322.236 574.78C323.447 573.94 324.385 572.729 325.049 571.147C325.713 569.545 326.045 567.612 326.045 565.346V565.287C326.045 563.041 325.713 561.127 325.049 559.545C324.385 557.944 323.438 556.733 322.207 555.912C320.977 555.073 319.541 554.653 317.9 554.653C316.279 554.653 314.854 555.073 313.623 555.912C312.412 556.752 311.465 557.963 310.781 559.545C310.098 561.127 309.756 563.041 309.756 565.287V565.346C309.756 567.612 310.088 569.545 310.752 571.147C311.436 572.729 312.393 573.94 313.623 574.78C314.854 575.62 316.299 576.039 317.959 576.039ZM337.441 580.756V549.936H343.828V554.594H343.945C344.766 553.032 345.967 551.772 347.549 550.815C349.131 549.838 351.084 549.35 353.408 549.35C356.787 549.35 359.404 550.375 361.26 552.426C363.115 554.457 364.043 557.25 364.043 560.805V580.756H357.686V562.036C357.686 559.711 357.139 557.924 356.045 556.674C354.971 555.424 353.34 554.799 351.152 554.799C349.668 554.799 348.369 555.131 347.256 555.795C346.162 556.459 345.312 557.387 344.707 558.578C344.121 559.77 343.828 561.176 343.828 562.797V580.756H337.441ZM397.471 581.459C394.307 581.459 391.533 580.981 389.15 580.024C386.787 579.067 384.912 577.7 383.525 575.922C382.139 574.125 381.357 571.987 381.182 569.506L381.152 569.067H387.568L387.627 569.448C387.822 570.737 388.359 571.86 389.238 572.817C390.137 573.754 391.309 574.477 392.754 574.985C394.199 575.493 395.859 575.746 397.734 575.746C399.629 575.746 401.26 575.483 402.627 574.955C403.994 574.428 405.049 573.676 405.791 572.7C406.553 571.723 406.934 570.58 406.934 569.272V569.243C406.934 567.543 406.318 566.196 405.088 565.2C403.877 564.184 401.865 563.373 399.053 562.768L394.453 561.801C390.312 560.922 387.227 559.516 385.195 557.582C383.164 555.629 382.148 553.09 382.148 549.965V549.936C382.168 547.534 382.832 545.424 384.141 543.608C385.449 541.772 387.256 540.346 389.561 539.33C391.865 538.295 394.512 537.778 397.5 537.778C400.43 537.778 403.018 538.276 405.264 539.272C407.51 540.268 409.287 541.664 410.596 543.461C411.904 545.239 412.637 547.319 412.793 549.702L412.822 550.17H406.406L406.348 549.789C406.172 548.461 405.684 547.328 404.883 546.391C404.102 545.453 403.076 544.741 401.807 544.252C400.537 543.745 399.062 543.491 397.383 543.491C395.645 543.491 394.131 543.754 392.842 544.282C391.553 544.789 390.557 545.502 389.854 546.42C389.15 547.338 388.799 548.422 388.799 549.672V549.702C388.799 551.284 389.424 552.573 390.674 553.569C391.924 554.565 393.867 555.346 396.504 555.912L401.104 556.909C405.479 557.827 408.652 559.233 410.625 561.127C412.617 563.002 413.613 565.571 413.613 568.832V568.862C413.613 571.44 412.959 573.676 411.65 575.571C410.361 577.446 408.506 578.901 406.084 579.936C403.682 580.952 400.811 581.459 397.471 581.459ZM429.58 581.371C426.533 581.371 424.258 580.688 422.754 579.321C421.27 577.934 420.527 575.698 420.527 572.612V554.975H416.104V549.936H420.527V541.909H427.031V549.936H432.803V554.975H427.031V572.26C427.031 573.823 427.373 574.897 428.057 575.483C428.74 576.049 429.756 576.332 431.104 576.332C431.436 576.332 431.738 576.323 432.012 576.303C432.305 576.264 432.568 576.235 432.803 576.215V581.108C432.432 581.166 431.963 581.225 431.396 581.284C430.83 581.342 430.225 581.371 429.58 581.371ZM437.988 580.756V549.936H444.375V555.209H444.492C444.98 553.393 445.85 551.967 447.1 550.932C448.35 549.877 449.854 549.35 451.611 549.35C452.08 549.35 452.5 549.379 452.871 549.438C453.262 549.477 453.574 549.526 453.809 549.584V555.473C453.555 555.375 453.174 555.297 452.666 555.239C452.158 555.161 451.592 555.121 450.967 555.121C449.619 555.121 448.447 555.414 447.451 556C446.455 556.567 445.693 557.397 445.166 558.491C444.639 559.565 444.375 560.864 444.375 562.387V580.756H437.988ZM469.629 581.371C466.621 581.371 464.023 580.727 461.836 579.438C459.668 578.129 457.998 576.284 456.826 573.901C455.674 571.498 455.098 568.676 455.098 565.434V565.405C455.098 562.202 455.684 559.399 456.855 556.996C458.027 554.575 459.678 552.7 461.807 551.371C463.936 550.024 466.436 549.35 469.307 549.35C472.197 549.35 474.678 549.995 476.748 551.284C478.838 552.553 480.449 554.36 481.582 556.703C482.715 559.028 483.281 561.733 483.281 564.819V566.957H458.232V562.475H480.205L477.07 566.664V564.203C477.07 562.036 476.738 560.239 476.074 558.813C475.43 557.368 474.521 556.293 473.35 555.59C472.197 554.887 470.859 554.536 469.336 554.536C467.832 554.536 466.484 554.907 465.293 555.649C464.102 556.391 463.164 557.485 462.48 558.93C461.797 560.356 461.455 562.114 461.455 564.203V566.664C461.455 568.657 461.787 570.366 462.451 571.791C463.135 573.198 464.102 574.282 465.352 575.043C466.602 575.786 468.076 576.157 469.775 576.157C471.025 576.157 472.129 575.971 473.086 575.6C474.043 575.209 474.834 574.702 475.459 574.077C476.104 573.432 476.553 572.719 476.807 571.938L476.895 571.703H482.93L482.871 572.026C482.617 573.237 482.139 574.399 481.436 575.512C480.732 576.625 479.814 577.631 478.682 578.53C477.568 579.409 476.25 580.102 474.727 580.61C473.203 581.118 471.504 581.371 469.629 581.371ZM501.328 581.371C498.32 581.371 495.723 580.727 493.535 579.438C491.367 578.129 489.697 576.284 488.525 573.901C487.373 571.498 486.797 568.676 486.797 565.434V565.405C486.797 562.202 487.383 559.399 488.555 556.996C489.727 554.575 491.377 552.7 493.506 551.371C495.635 550.024 498.135 549.35 501.006 549.35C503.896 549.35 506.377 549.995 508.447 551.284C510.537 552.553 512.148 554.36 513.281 556.703C514.414 559.028 514.98 561.733 514.98 564.819V566.957H489.932V562.475H511.904L508.77 566.664V564.203C508.77 562.036 508.438 560.239 507.773 558.813C507.129 557.368 506.221 556.293 505.049 555.59C503.896 554.887 502.559 554.536 501.035 554.536C499.531 554.536 498.184 554.907 496.992 555.649C495.801 556.391 494.863 557.485 494.18 558.93C493.496 560.356 493.154 562.114 493.154 564.203V566.664C493.154 568.657 493.486 570.366 494.15 571.791C494.834 573.198 495.801 574.282 497.051 575.043C498.301 575.786 499.775 576.157 501.475 576.157C502.725 576.157 503.828 575.971 504.785 575.6C505.742 575.209 506.533 574.702 507.158 574.077C507.803 573.432 508.252 572.719 508.506 571.938L508.594 571.703H514.629L514.57 572.026C514.316 573.237 513.838 574.399 513.135 575.512C512.432 576.625 511.514 577.631 510.381 578.53C509.268 579.409 507.949 580.102 506.426 580.61C504.902 581.118 503.203 581.371 501.328 581.371ZM530.713 581.371C527.666 581.371 525.391 580.688 523.887 579.321C522.402 577.934 521.66 575.698 521.66 572.612V554.975H517.236V549.936H521.66V541.909H528.164V549.936H533.936V554.975H528.164V572.26C528.164 573.823 528.506 574.897 529.189 575.483C529.873 576.049 530.889 576.332 532.236 576.332C532.568 576.332 532.871 576.323 533.145 576.303C533.438 576.264 533.701 576.235 533.936 576.215V581.108C533.564 581.166 533.096 581.225 532.529 581.284C531.963 581.342 531.357 581.371 530.713 581.371ZM537.246 589.252L539.648 574.223H545.977L541.699 589.252H537.246ZM3.89648 652.756V610.481H10.459V647.073H30.1758V652.756H3.89648ZM47.5781 653.371C44.6289 653.371 42.0508 652.727 39.8438 651.438C37.6562 650.129 35.957 648.284 34.7461 645.901C33.5352 643.498 32.9297 640.647 32.9297 637.346V637.287C32.9297 634.006 33.5352 631.174 34.7461 628.791C35.9766 626.409 37.6855 624.573 39.873 623.284C42.0801 621.995 44.6387 621.35 47.5488 621.35C50.4785 621.35 53.0371 621.995 55.2246 623.284C57.4316 624.553 59.1406 626.379 60.3516 628.762C61.582 631.145 62.1973 633.987 62.1973 637.287V637.346C62.1973 640.666 61.582 643.518 60.3516 645.901C59.1406 648.284 57.4414 650.129 55.2539 651.438C53.0664 652.727 50.5078 653.371 47.5781 653.371ZM47.6074 648.039C49.248 648.039 50.6738 647.62 51.8848 646.78C53.0957 645.94 54.0332 644.729 54.6973 643.147C55.3613 641.545 55.6934 639.612 55.6934 637.346V637.287C55.6934 635.041 55.3613 633.127 54.6973 631.545C54.0332 629.944 53.0859 628.733 51.8555 627.912C50.625 627.073 49.1895 626.653 47.5488 626.653C45.9277 626.653 44.502 627.073 43.2715 627.912C42.0605 628.752 41.1133 629.963 40.4297 631.545C39.7461 633.127 39.4043 635.041 39.4043 637.287V637.346C39.4043 639.612 39.7363 641.545 40.4004 643.147C41.084 644.729 42.041 645.94 43.2715 646.78C44.502 647.62 45.9473 648.039 47.6074 648.039ZM67.0898 652.756V621.936H73.4766V626.594H73.5938C74.4141 625.032 75.6152 623.772 77.1973 622.815C78.7793 621.838 80.7324 621.35 83.0566 621.35C86.4355 621.35 89.0527 622.375 90.9082 624.426C92.7637 626.457 93.6914 629.25 93.6914 632.805V652.756H87.334V634.036C87.334 631.711 86.7871 629.924 85.6934 628.674C84.6191 627.424 82.9883 626.799 80.8008 626.799C79.3164 626.799 78.0176 627.131 76.9043 627.795C75.8105 628.459 74.9609 629.387 74.3555 630.578C73.7695 631.77 73.4766 633.176 73.4766 634.797V652.756H67.0898ZM111.328 653.371C108.711 653.371 106.436 652.717 104.502 651.409C102.568 650.1 101.074 648.254 100.02 645.871C98.9648 643.469 98.4375 640.627 98.4375 637.346V637.317C98.4375 634.036 98.9648 631.203 100.02 628.821C101.094 626.438 102.588 624.602 104.502 623.313C106.436 622.004 108.691 621.35 111.27 621.35C113.438 621.35 115.361 621.868 117.041 622.903C118.74 623.938 120.059 625.364 120.996 627.18H121.113V610.481H127.5V652.756H121.113V647.541H120.996C120.078 649.338 118.789 650.764 117.129 651.819C115.469 652.854 113.535 653.371 111.328 653.371ZM112.998 647.893C114.6 647.893 116.006 647.463 117.217 646.604C118.447 645.725 119.404 644.495 120.088 642.912C120.791 641.33 121.143 639.475 121.143 637.346V637.317C121.143 635.188 120.791 633.342 120.088 631.78C119.385 630.198 118.428 628.977 117.217 628.118C116.006 627.239 114.6 626.799 112.998 626.799C111.338 626.799 109.902 627.229 108.691 628.088C107.48 628.928 106.543 630.139 105.879 631.721C105.234 633.284 104.912 635.149 104.912 637.317V637.346C104.912 639.514 105.234 641.399 105.879 643C106.543 644.582 107.48 645.793 108.691 646.633C109.902 647.473 111.338 647.893 112.998 647.893ZM147.246 653.371C144.297 653.371 141.719 652.727 139.512 651.438C137.324 650.129 135.625 648.284 134.414 645.901C133.203 643.498 132.598 640.647 132.598 637.346V637.287C132.598 634.006 133.203 631.174 134.414 628.791C135.645 626.409 137.354 624.573 139.541 623.284C141.748 621.995 144.307 621.35 147.217 621.35C150.146 621.35 152.705 621.995 154.893 623.284C157.1 624.553 158.809 626.379 160.02 628.762C161.25 631.145 161.865 633.987 161.865 637.287V637.346C161.865 640.666 161.25 643.518 160.02 645.901C158.809 648.284 157.109 650.129 154.922 651.438C152.734 652.727 150.176 653.371 147.246 653.371ZM147.275 648.039C148.916 648.039 150.342 647.62 151.553 646.78C152.764 645.94 153.701 644.729 154.365 643.147C155.029 641.545 155.361 639.612 155.361 637.346V637.287C155.361 635.041 155.029 633.127 154.365 631.545C153.701 629.944 152.754 628.733 151.523 627.912C150.293 627.073 148.857 626.653 147.217 626.653C145.596 626.653 144.17 627.073 142.939 627.912C141.729 628.752 140.781 629.963 140.098 631.545C139.414 633.127 139.072 635.041 139.072 637.287V637.346C139.072 639.612 139.404 641.545 140.068 643.147C140.752 644.729 141.709 645.94 142.939 646.78C144.17 647.62 145.615 648.039 147.275 648.039ZM166.758 652.756V621.936H173.145V626.594H173.262C174.082 625.032 175.283 623.772 176.865 622.815C178.447 621.838 180.4 621.35 182.725 621.35C186.104 621.35 188.721 622.375 190.576 624.426C192.432 626.457 193.359 629.25 193.359 632.805V652.756H187.002V634.036C187.002 631.711 186.455 629.924 185.361 628.674C184.287 627.424 182.656 626.799 180.469 626.799C178.984 626.799 177.686 627.131 176.572 627.795C175.479 628.459 174.629 629.387 174.023 630.578C173.438 631.77 173.145 633.176 173.145 634.797V652.756H166.758ZM197.578 661.252L199.98 646.223H206.309L202.031 661.252H197.578ZM231.475 652.756L220.078 610.481H226.934L234.785 643.586H234.932L243.838 610.481H250.078L258.984 643.586H259.131L266.982 610.481H273.838L262.441 652.756H256.113L247.031 620.911H246.885L237.803 652.756H231.475ZM295.664 653.459C291.68 653.459 288.213 652.571 285.264 650.793C282.334 649.016 280.068 646.496 278.467 643.235C276.865 639.953 276.064 636.077 276.064 631.604V631.575C276.064 627.102 276.865 623.235 278.467 619.973C280.068 616.711 282.334 614.202 285.264 612.444C288.193 610.666 291.66 609.778 295.664 609.778C298.77 609.778 301.572 610.373 304.072 611.565C306.572 612.756 308.633 614.407 310.254 616.516C311.875 618.625 312.9 621.077 313.33 623.87L313.359 624.162H306.826L306.65 623.577C306.201 621.916 305.469 620.491 304.453 619.299C303.457 618.108 302.217 617.2 300.732 616.575C299.268 615.93 297.578 615.608 295.664 615.608C293.047 615.608 290.771 616.262 288.838 617.571C286.924 618.879 285.439 620.725 284.385 623.108C283.33 625.491 282.803 628.313 282.803 631.575V631.604C282.803 634.846 283.33 637.678 284.385 640.1C285.439 642.502 286.934 644.358 288.867 645.666C290.801 646.975 293.066 647.629 295.664 647.629C297.539 647.629 299.209 647.317 300.674 646.692C302.158 646.047 303.418 645.11 304.453 643.879C305.488 642.649 306.26 641.145 306.768 639.368L306.855 639.075H313.389L313.33 639.368C312.9 642.18 311.875 644.651 310.254 646.78C308.652 648.889 306.602 650.53 304.102 651.702C301.602 652.873 298.789 653.459 295.664 653.459ZM318.721 652.756V648.245L333.633 633.274C335.527 631.379 336.963 629.817 337.939 628.586C338.916 627.356 339.59 626.252 339.961 625.276C340.332 624.28 340.518 623.235 340.518 622.141V622.082C340.518 620.735 340.195 619.543 339.551 618.508C338.926 617.473 338.066 616.662 336.973 616.077C335.879 615.491 334.609 615.198 333.164 615.198C331.523 615.198 330.059 615.539 328.77 616.223C327.5 616.907 326.494 617.825 325.752 618.977C325.01 620.11 324.639 621.389 324.639 622.815L324.609 623.02H318.398V622.815C318.398 620.295 319.043 618.049 320.332 616.077C321.621 614.104 323.379 612.561 325.605 611.448C327.852 610.334 330.342 609.778 333.076 609.778C335.811 609.778 338.223 610.295 340.312 611.33C342.402 612.366 344.033 613.791 345.205 615.608C346.396 617.405 346.992 619.446 346.992 621.731V621.789C346.992 623.391 346.699 624.914 346.113 626.36C345.527 627.805 344.521 629.397 343.096 631.135C341.689 632.873 339.717 635.002 337.178 637.522L325.342 649.123L327.568 644.905V649.123L325.342 647.219H347.666V652.756H318.721ZM354.17 652.756V610.481H360.732V628.352H382.412V610.481H389.004V652.756H382.412V634.036H360.732V652.756H354.17ZM423.662 609.778C425.83 609.778 427.9 610.178 429.873 610.979C431.865 611.76 433.643 613 435.205 614.7C436.787 616.379 438.027 618.567 438.926 621.262C439.844 623.938 440.303 627.18 440.303 630.989V631.047C440.303 635.754 439.629 639.787 438.281 643.147C436.934 646.487 435 649.045 432.48 650.823C429.961 652.58 426.934 653.459 423.398 653.459C420.898 653.459 418.633 653.01 416.602 652.112C414.57 651.213 412.881 649.973 411.533 648.391C410.205 646.789 409.307 644.944 408.838 642.854L408.779 642.502H415.371L415.488 642.795C415.879 643.83 416.436 644.739 417.158 645.52C417.9 646.301 418.799 646.907 419.854 647.336C420.908 647.746 422.109 647.952 423.457 647.952C425.879 647.952 427.842 647.248 429.346 645.842C430.85 644.436 431.963 642.571 432.686 640.246C433.428 637.922 433.848 635.364 433.945 632.571C433.965 632.356 433.975 632.141 433.975 631.926C433.975 631.692 433.975 631.457 433.975 631.223L432.686 624.25C432.686 622.571 432.285 621.057 431.484 619.709C430.703 618.362 429.639 617.297 428.291 616.516C426.943 615.715 425.42 615.315 423.721 615.315C422.061 615.315 420.547 615.705 419.18 616.487C417.832 617.268 416.758 618.323 415.957 619.651C415.156 620.979 414.756 622.463 414.756 624.104V624.162C414.756 625.862 415.137 627.366 415.898 628.674C416.68 629.983 417.734 631.018 419.062 631.78C420.41 632.522 421.934 632.893 423.633 632.893C425.352 632.893 426.895 632.522 428.262 631.78C429.629 631.037 430.703 630.022 431.484 628.733C432.285 627.424 432.686 625.94 432.686 624.28V624.25H434.443V631.428H433.828C433.262 632.698 432.422 633.85 431.309 634.885C430.215 635.901 428.887 636.711 427.324 637.317C425.781 637.922 424.053 638.225 422.139 638.225C419.443 638.225 417.041 637.629 414.932 636.438C412.842 635.227 411.191 633.577 409.98 631.487C408.789 629.377 408.193 626.995 408.193 624.338V624.28C408.193 621.467 408.857 618.977 410.186 616.809C411.533 614.621 413.369 612.903 415.693 611.653C418.018 610.403 420.674 609.778 423.662 609.778ZM456.738 653.459C454.141 653.459 451.904 652.971 450.029 651.995C448.174 650.998 446.729 649.641 445.693 647.922C444.678 646.184 444.111 644.192 443.994 641.946L443.965 641.594H450.439L450.469 641.828C450.566 642.903 450.859 643.879 451.348 644.758C451.836 645.618 452.52 646.311 453.398 646.838C454.297 647.346 455.391 647.6 456.68 647.6C458.848 647.6 460.498 646.965 461.631 645.696C462.783 644.426 463.359 642.58 463.359 640.159V610.481H469.922V640.217C469.922 644.397 468.76 647.649 466.436 649.973C464.131 652.297 460.898 653.459 456.738 653.459ZM496.172 653.459C492.09 653.459 488.564 652.58 485.596 650.823C482.627 649.045 480.342 646.526 478.74 643.264C477.139 639.983 476.338 636.106 476.338 631.633V631.575C476.338 627.102 477.139 623.235 478.74 619.973C480.361 616.711 482.656 614.202 485.625 612.444C488.594 610.666 492.109 609.778 496.172 609.778C500.215 609.778 503.721 610.666 506.689 612.444C509.658 614.221 511.943 616.741 513.545 620.002C515.146 623.245 515.947 627.102 515.947 631.575V631.633C515.947 636.106 515.146 639.973 513.545 643.235C511.943 646.496 509.658 649.016 506.689 650.793C503.74 652.571 500.234 653.459 496.172 653.459ZM496.172 647.629C498.867 647.629 501.182 646.975 503.115 645.666C505.068 644.358 506.572 642.502 507.627 640.1C508.682 637.698 509.209 634.875 509.209 631.633V631.575C509.209 628.313 508.672 625.491 507.598 623.108C506.543 620.705 505.039 618.86 503.086 617.571C501.133 616.262 498.828 615.608 496.172 615.608C493.496 615.608 491.182 616.252 489.229 617.541C487.275 618.83 485.762 620.676 484.688 623.078C483.613 625.461 483.076 628.293 483.076 631.575V631.633C483.076 634.895 483.604 637.727 484.658 640.129C485.732 642.532 487.246 644.387 489.199 645.696C491.152 646.985 493.477 647.629 496.172 647.629ZM507.275 657.239L494.707 639.778H501.533L514.131 657.239H507.275Z" fill="#004464"/>
</svg>
