<svg width="533" height="520" viewBox="0 0 533 520" fill="none" xmlns="http://www.w3.org/2000/svg">
<g clip-path="url(#clip0_126_2)">
<path d="M158.52 238.414H84.4691C62.0665 238.414 40.5815 229.722 24.7404 214.251C8.8994 198.78 0 177.797 0 155.918L0 0H56.3127V155.093C56.4572 162.779 59.648 170.111 65.2142 175.548C70.7803 180.984 78.2881 184.1 86.1585 184.241H157.676C161.669 184.314 165.638 183.618 169.356 182.192C173.074 180.767 176.468 178.64 179.344 175.933C182.221 173.226 184.523 169.993 186.119 166.417C187.715 162.841 188.574 158.993 188.648 155.093V0H244.96V155.918C244.96 177.797 236.061 198.78 220.22 214.251C204.379 229.722 182.894 238.414 160.491 238.414" fill="#004464"/>
<path d="M533 0H461.201L343.789 90.1957V0H288.321V238.414H343.789V147.668L461.201 238.414H532.718L378.14 118.794L533 0Z" fill="#004464"/>
<path d="M244.116 520H84.4691C73.2087 520.003 62.0613 517.807 51.6824 513.541C41.3035 509.276 31.9027 503.026 24.0327 495.161C16.1627 487.295 9.98241 477.972 5.85523 467.74C1.72805 457.508 -0.262694 446.573 4.99114e-05 435.579V366.007C-0.262694 355.013 1.72805 344.078 5.85523 333.846C9.98241 323.614 16.1627 314.291 24.0327 306.425C31.9027 298.56 41.3035 292.311 51.6824 288.045C62.0613 283.779 73.2087 281.583 84.4691 281.586H244.116V336.584H84.4691C76.6772 337.079 69.3865 340.51 64.134 346.153C58.8815 351.796 56.0774 359.21 56.3128 366.832V436.404C56.2964 443.885 59.1985 451.092 64.429 456.558C69.6594 462.023 76.8253 465.338 84.4691 465.828H244.116V520Z" fill="#004464"/>
<path d="M446.842 281.586H373.917C351.514 281.586 330.029 290.278 314.188 305.749C298.347 321.22 289.448 342.203 289.448 364.082V520H345.76V465.003H478.94V520H535.253V364.082C535.253 342.203 526.353 321.22 510.512 305.749C494.671 290.278 473.186 281.586 450.784 281.586M343.789 412.48V365.732C343.863 361.832 344.722 357.984 346.318 354.408C347.914 350.832 350.216 347.599 353.093 344.892C355.969 342.185 359.363 340.058 363.081 338.633C366.799 337.207 370.768 336.511 374.761 336.584H445.997C449.99 336.511 453.96 337.207 457.678 338.633C461.396 340.058 464.79 342.185 467.666 344.892C470.542 347.599 472.844 350.832 474.44 354.408C476.036 357.984 476.896 361.832 476.969 365.732V412.48H343.789Z" fill="#004464"/>
</g>
<defs>
<clipPath id="clip0_126_2">
<rect width="533" height="520" fill="white"/>
</clipPath>
</defs>
</svg>
