<?xml version="1.0" encoding="UTF-8"?>
<svg id="Layer_1" data-name="Layer 1" xmlns="http://www.w3.org/2000/svg" version="1.1" viewBox="0 0 77.6 80.02">
  <defs>
    <style>
      .cls-1 {
        fill: none;
        stroke: #ff5d48;
        stroke-linecap: round;
        stroke-miterlimit: 10;
        stroke-width: 7.12px;
      }

      .cls-2 {
        fill: #36b0ff;
      }

      .cls-2, .cls-3, .cls-4 {
        stroke-width: 0px;
      }

      .cls-3 {
        fill: #fff;
      }

      .cls-4 {
        fill: #004464;
      }
    </style>
  </defs>
  <path class="cls-3" d="M68.13,52.43c-6.5,15.91-24.67,23.53-40.58,17.03-15.91-6.5-23.53-24.67-17.03-40.58,6.5-15.91,24.67-23.53,40.58-17.03,15.91,6.5,23.53,24.67,17.03,40.58"/>
  <path class="cls-1" d="M68.13,52.43c-6.5,15.91-24.67,23.53-40.58,17.03-15.91-6.5-23.53-24.67-17.03-40.58,6.5-15.91,24.67-23.53,40.58-17.03,15.91,6.5,23.53,24.67,17.03,40.58Z"/>
  <path class="cls-4" d="M27.72,40.6c-4.44,0-8.06,3.62-8.06,8.06,0,1.63,3.54,2.91,8.06,2.91s8.06-1.28,8.06-2.91c0-4.44-3.61-8.06-8.06-8.06"/>
  <path class="cls-4" d="M32.51,34.14c0,2.65-2.15,4.8-4.8,4.8s-4.8-2.15-4.8-4.8c0-2.65,2.15-4.8,4.8-4.8s4.8,2.15,4.8,4.8"/>
  <path class="cls-4" d="M52.01,40.6c-4.44,0-8.06,3.62-8.06,8.06,0,1.63,3.54,2.91,8.06,2.91s8.06-1.28,8.06-2.91c0-4.44-3.61-8.06-8.06-8.06"/>
  <path class="cls-4" d="M56.8,34.14c0,2.65-2.15,4.8-4.8,4.8s-4.8-2.15-4.8-4.8c0-2.65,2.15-4.8,4.8-4.8s4.8,2.15,4.8,4.8"/>
  <path class="cls-2" d="M44.14,26.75c0,2.65-2.15,4.8-4.8,4.8s-4.8-2.15-4.8-4.8c0-2.65,2.15-4.8,4.8-4.8s4.8,2.15,4.8,4.8"/>
  <path class="cls-2" d="M39.64,58.49c-4.72,0-9.48-1.34-9.48-4.33,0-5.23,4.25-9.48,9.48-9.48s9.48,4.25,9.48,9.48c0,2.99-4.76,4.33-9.48,4.33"/>
  <path class="cls-3" d="M39.64,46.1c4.44,0,8.06,3.61,8.06,8.06,0,1.63-3.54,2.91-8.06,2.91s-8.06-1.28-8.06-2.91c0-4.44,3.61-8.06,8.06-8.06M39.64,43.26c-6.01,0-10.9,4.89-10.9,10.9,0,3.49,4.28,5.75,10.9,5.75s10.9-2.26,10.9-5.75c0-6.01-4.89-10.9-10.9-10.9"/>
  <path class="cls-2" d="M39.62,45.86c-3.43,0-6.23-2.79-6.23-6.22,0-3.43,2.79-6.22,6.23-6.22,1.66,0,3.23.65,4.4,1.82,1.18,1.18,1.82,2.74,1.82,4.4,0,3.43-2.79,6.22-6.23,6.23Z"/>
  <path class="cls-3" d="M39.62,34.84c2.65,0,4.8,2.15,4.8,4.8s-2.15,4.8-4.8,4.8-4.8-2.15-4.8-4.8,2.15-4.8,4.8-4.8M39.62,31.99c-4.22,0-7.65,3.43-7.65,7.65,0,2.04.79,3.96,2.24,5.41,1.44,1.44,3.36,2.24,5.41,2.24,4.22,0,7.65-3.43,7.65-7.65,0-2.04-.8-3.96-2.24-5.41-1.44-1.45-3.36-2.24-5.41-2.24"/>
</svg>